<svg width="500" height="500" viewBox="0 0 500 500" version="1.1" xmlns="http://www.w3.org/2000/svg" xmlns:xlink="http://www.w3.org/1999/xlink">
<title>Down</title>
<desc>Created using Figma</desc>
<g id="Canvas" transform="translate(2473 -1416)">
<clipPath id="clip-0" clip-rule="evenodd">
<path d="M -2473 1416L -1973 1416L -1973 1916L -2473 1916L -2473 1416Z" fill="#FFFFFF"/>
</clipPath>
<g id="Down" clip-path="url(#clip-0)">
<g id="Ellipse 6">
<use xlink:href="#path0_fill" transform="matrix(0.258819 -0.965926 0.965917 0.258852 -2373.47 1790.3)" fill="#BDBDBD"/>
<mask id="mask0_outline_ins">
<use xlink:href="#path0_fill" fill="white" transform="matrix(0.258819 -0.965926 0.965917 0.258852 -2373.47 1790.3)"/>
</mask>
<g mask="url(#mask0_outline_ins)">
<use xlink:href="#path1_stroke_2x" transform="matrix(0.258819 -0.965926 0.965917 0.258852 -2373.47 1790.3)"/>
</g>
</g>
<g id="Ellipse 6">
<use xlink:href="#path2_fill" transform="matrix(0.707107 0.707107 -0.706836 0.707378 -2302.69 1617.81)" fill="#F2F2F2"/>
<mask id="mask1_outline_ins">
<use xlink:href="#path2_fill" fill="white" transform="matrix(0.707107 0.707107 -0.706836 0.707378 -2302.69 1617.81)"/>
</mask>
<g mask="url(#mask1_outline_ins)">
<use xlink:href="#path3_stroke_2x" transform="matrix(0.707107 0.707107 -0.706836 0.707378 -2302.69 1617.81)"/>
</g>
</g>
<g id="Ellipse 6">
<use xlink:href="#path0_fill" transform="matrix(-0.258819 -0.965926 -0.965917 0.258852 -2043 1790.3)" fill="#A9A9A9"/>
<mask id="mask2_outline_ins">
<use xlink:href="#path0_fill" fill="white" transform="matrix(-0.258819 -0.965926 -0.965917 0.258852 -2043 1790.3)"/>
</mask>
<g mask="url(#mask2_outline_ins)">
<use xlink:href="#path1_stroke_2x" transform="matrix(-0.258819 -0.965926 -0.965917 0.258852 -2043 1790.3)"/>
</g>
</g>
<g id="Ellipse 6">
<use xlink:href="#path2_fill" transform="matrix(-0.707107 0.707107 0.706836 0.707378 -2113.05 1618)" fill="#F2F2F2"/>
<mask id="mask3_outline_ins">
<use xlink:href="#path2_fill" fill="white" transform="matrix(-0.707107 0.707107 0.706836 0.707378 -2113.05 1618)"/>
</mask>
<g mask="url(#mask3_outline_ins)">
<use xlink:href="#path3_stroke_2x" transform="matrix(-0.707107 0.707107 0.706836 0.707378 -2113.05 1618)"/>
</g>
</g>
<g id="Ellipse 6">
<use xlink:href="#path4_fill" transform="matrix(0.258616 -0.96598 0.965871 0.259022 -2307.22 1895.59)" fill="#E0E0E0"/>
<mask id="mask4_outline_ins">
<use xlink:href="#path4_fill" fill="white" transform="matrix(0.258616 -0.96598 0.965871 0.259022 -2307.22 1895.59)"/>
</mask>
<g mask="url(#mask4_outline_ins)">
<use xlink:href="#path5_stroke_2x" transform="matrix(0.258616 -0.96598 0.965871 0.259022 -2307.22 1895.59)"/>
</g>
</g>
<g id="Ellipse 6">
<use xlink:href="#path6_fill" transform="matrix(-0.258663 -0.966156 0.965696 -0.258975 -2177.39 1916.43)" fill="#D9D9D9"/>
<mask id="mask5_outline_ins">
<use xlink:href="#path6_fill" fill="white" transform="matrix(-0.258663 -0.966156 0.965696 -0.258975 -2177.39 1916.43)"/>
</mask>
<g mask="url(#mask5_outline_ins)">
<use xlink:href="#path7_stroke_2x" transform="matrix(-0.258663 -0.966156 0.965696 -0.258975 -2177.39 1916.43)"/>
</g>
</g>
<g id="Ellipse 6">
<use xlink:href="#path8_fill" transform="matrix(6.11809e-17 -1 1 6.12838e-17 -2289.44 1822.47)" fill="url(#paint12_linear)"/>
<mask id="mask6_outline_ins">
<use xlink:href="#path8_fill" fill="white" transform="matrix(6.11809e-17 -1 1 6.12838e-17 -2289.44 1822.47)"/>
</mask>
<g mask="url(#mask6_outline_ins)">
<use xlink:href="#path9_stroke_2x" transform="matrix(6.11809e-17 -1 1 6.12838e-17 -2289.44 1822.47)"/>
</g>
</g>
<g id="Intersect">
<use xlink:href="#path10_fill" transform="translate(-2300.44 1593.98)" fill="#0A4CA5"/>
<mask id="mask7_outline_ins">
<use xlink:href="#path10_fill" fill="white" transform="translate(-2300.44 1593.98)"/>
</mask>
<g mask="url(#mask7_outline_ins)">
<use xlink:href="#path11_stroke_2x" transform="translate(-2300.44 1593.98)"/>
</g>
</g>
<g id="Ellipse 6">
<use xlink:href="#path12_fill" transform="translate(-2334.89 1447.31)" fill="#BDBDBD"/>
<mask id="mask8_outline_ins">
<use xlink:href="#path12_fill" fill="white" transform="translate(-2334.89 1447.31)"/>
</mask>
<g mask="url(#mask8_outline_ins)">
<use xlink:href="#path13_stroke_2x" transform="translate(-2334.89 1447.31)"/>
</g>
</g>
<g id="Ellipse 6">
<use xlink:href="#path14_fill" transform="matrix(-1 0 0 1 -2186.44 1434.81)" fill="#EB5757"/>
<mask id="mask9_outline_ins">
<use xlink:href="#path14_fill" fill="white" transform="matrix(-1 0 0 1 -2186.44 1434.81)"/>
</mask>
<g mask="url(#mask9_outline_ins)">
<use xlink:href="#path15_stroke_2x" transform="matrix(-1 0 0 1 -2186.44 1434.81)"/>
</g>
</g>
<g id="Ellipse 6">
<use xlink:href="#path16_fill" transform="translate(-2317.44 1522.81)" fill="url(#paint20_radial)"/>
<mask id="mask10_outline_ins">
<use xlink:href="#path16_fill" fill="white" transform="translate(-2317.44 1522.81)"/>
</mask>
<g mask="url(#mask10_outline_ins)">
<use xlink:href="#path17_stroke_2x" transform="translate(-2317.44 1522.81)"/>
</g>
</g>
<g id="Group">
<g id="Ellipse 6">
<use xlink:href="#path18_fill" transform="translate(-2277.44 1542.81)" fill="#FFFFFF"/>
<mask id="mask11_outline_ins">
<use xlink:href="#path18_fill" fill="white" transform="translate(-2277.44 1542.81)"/>
</mask>
<g mask="url(#mask11_outline_ins)">
<use xlink:href="#path19_stroke_2x" transform="translate(-2277.44 1542.81)"/>
</g>
</g>
<g id="Ellipse 6">
<use xlink:href="#path18_fill" transform="translate(-2191.92 1542.81)" fill="#FFFFFF"/>
<mask id="mask12_outline_ins">
<use xlink:href="#path18_fill" fill="white" transform="translate(-2191.92 1542.81)"/>
</mask>
<g mask="url(#mask12_outline_ins)">
<use xlink:href="#path19_stroke_2x" transform="translate(-2191.92 1542.81)"/>
</g>
</g>
<g id="Ellipse 6">
<use xlink:href="#path20_fill" transform="translate(-2178.44 1565.81)" fill="#030303"/>
<mask id="mask13_outline_ins">
<use xlink:href="#path20_fill" fill="white" transform="translate(-2178.44 1565.81)"/>
</mask>
<g mask="url(#mask13_outline_ins)">
<use xlink:href="#path21_stroke_2x" transform="translate(-2178.44 1565.81)"/>
</g>
</g>
<g id="Ellipse 6">
<use xlink:href="#path20_fill" transform="translate(-2264.44 1565.81)" fill="#030303"/>
<mask id="mask14_outline_ins">
<use xlink:href="#path20_fill" fill="white" transform="translate(-2264.44 1565.81)"/>
</mask>
<g mask="url(#mask14_outline_ins)">
<use xlink:href="#path21_stroke_2x" transform="translate(-2264.44 1565.81)"/>
</g>
</g>
</g>
<g id="Ellipse 8">
<use xlink:href="#path22_fill" transform="matrix(0.258819 -0.965926 0.965926 0.258819 -2116.44 1801.12)" fill="#EB5757"/>
<mask id="mask15_outline_ins">
<use xlink:href="#path22_fill" fill="white" transform="matrix(0.258819 -0.965926 0.965926 0.258819 -2116.44 1801.12)"/>
</mask>
<g mask="url(#mask15_outline_ins)">
<use xlink:href="#path23_stroke_2x" transform="matrix(0.258819 -0.965926 0.965926 0.258819 -2116.44 1801.12)"/>
</g>
</g>
<g id="Ellipse 8">
<use xlink:href="#path22_fill" transform="matrix(-0.258819 -0.965926 0.965926 -0.258819 -2361.13 1817.49)" fill="#EB5757"/>
<mask id="mask16_outline_ins">
<use xlink:href="#path22_fill" fill="white" transform="matrix(-0.258819 -0.965926 0.965926 -0.258819 -2361.13 1817.49)"/>
</mask>
<g mask="url(#mask16_outline_ins)">
<use xlink:href="#path23_stroke_2x" transform="matrix(-0.258819 -0.965926 0.965926 -0.258819 -2361.13 1817.49)"/>
</g>
</g>
<g id="Group">
<g id="Ellipse 8">
<use xlink:href="#path24_fill" transform="matrix(-0.258819 -0.965926 0.965926 -0.258819 -2374.41 1771.81)" fill="#323232"/>
<mask id="mask17_outline_ins">
<use xlink:href="#path24_fill" fill="white" transform="matrix(-0.258819 -0.965926 0.965926 -0.258819 -2374.41 1771.81)"/>
</mask>
<g mask="url(#mask17_outline_ins)">
<use xlink:href="#path25_stroke_2x" transform="matrix(-0.258819 -0.965926 0.965926 -0.258819 -2374.41 1771.81)"/>
</g>
</g>
<g id="Rectangle 2">
<use xlink:href="#path26_fill" transform="matrix(-0.965926 0.258819 0.258819 0.965926 -2429.98 1402)" fill="#00E1CC" fill-opacity="0.96"/>
<mask id="mask18_outline_ins">
<use xlink:href="#path26_fill" fill="white" transform="matrix(-0.965926 0.258819 0.258819 0.965926 -2429.98 1402)"/>
</mask>
<g mask="url(#mask18_outline_ins)">
<use xlink:href="#path27_stroke_2x" transform="matrix(-0.965926 0.258819 0.258819 0.965926 -2429.98 1402)"/>
</g>
</g>
</g>
<g id="Group">
<g id="Ellipse 8">
<use xlink:href="#path28_fill" transform="matrix(1 -6.93889e-18 6.93889e-18 1 -2223.44 1629.81)" fill="#EB5757"/>
<mask id="mask19_outline_ins">
<use xlink:href="#path28_fill" fill="white" transform="matrix(1 -6.93889e-18 6.93889e-18 1 -2223.44 1629.81)"/>
</mask>
<g mask="url(#mask19_outline_ins)">
<use xlink:href="#path29_stroke_2x" transform="matrix(1 -6.93889e-18 6.93889e-18 1 -2223.44 1629.81)"/>
</g>
</g>
<g id="Ellipse 8">
<use xlink:href="#path30_fill" transform="matrix(0.00100502 -0.999999 0.999999 0.00100502 -2246.44 1651.12)" fill="#383735"/>
<mask id="mask20_outline_ins">
<use xlink:href="#path30_fill" fill="white" transform="matrix(0.00100502 -0.999999 0.999999 0.00100502 -2246.44 1651.12)"/>
</mask>
<g mask="url(#mask20_outline_ins)">
<use xlink:href="#path31_stroke_2x" transform="matrix(0.00100502 -0.999999 0.999999 0.00100502 -2246.44 1651.12)"/>
</g>
</g>
</g>
<g id="Ellipse 6">
<use xlink:href="#path16_fill" transform="translate(-2317.44 1522.81)" fill="url(#paint42_radial)"/>
<mask id="mask21_outline_ins">
<use xlink:href="#path16_fill" fill="white" transform="translate(-2317.44 1522.81)"/>
</mask>
<g mask="url(#mask21_outline_ins)">
<use xlink:href="#path17_stroke_2x" transform="translate(-2317.44 1522.81)"/>
</g>
</g>
<g id="Intersect">
<use xlink:href="#path32_fill" transform="matrix(1 1.22465e-16 1.22465e-16 -1 -2282.44 1839)" fill="#0A4CA5"/>
<mask id="mask22_outline_ins">
<use xlink:href="#path32_fill" fill="white" transform="matrix(1 1.22465e-16 1.22465e-16 -1 -2282.44 1839)"/>
</mask>
<g mask="url(#mask22_outline_ins)">
<use xlink:href="#path33_stroke_2x" transform="matrix(1 1.22465e-16 1.22465e-16 -1 -2282.44 1839)"/>
</g>
</g>
<g id="Ellipse 6">
<use xlink:href="#path34_fill" transform="matrix(0.258616 -0.96598 0.965871 0.259022 -2307.22 1895.59)" fill="#E0E0E0"/>
<mask id="mask23_outline_ins">
<use xlink:href="#path34_fill" fill="white" transform="matrix(0.258616 -0.96598 0.965871 0.259022 -2307.22 1895.59)"/>
</mask>
<g mask="url(#mask23_outline_ins)">
<use xlink:href="#path35_stroke_2x" transform="matrix(0.258616 -0.96598 0.965871 0.259022 -2307.22 1895.59)"/>
</g>
</g>
<g id="Ellipse 8">
<use xlink:href="#path36_fill" transform="matrix(-1 5.55112e-17 -5.55112e-17 -1 -2229.44 1910.81)" fill="#EB5757"/>
<mask id="mask24_outline_ins">
<use xlink:href="#path36_fill" fill="white" transform="matrix(-1 5.55112e-17 -5.55112e-17 -1 -2229.44 1910.81)"/>
</mask>
<g mask="url(#mask24_outline_ins)">
<use xlink:href="#path37_stroke_2x" transform="matrix(-1 5.55112e-17 -5.55112e-17 -1 -2229.44 1910.81)"/>
</g>
</g>
<g id="Ellipse 6">
<use xlink:href="#path34_fill" transform="matrix(-0.258616 -0.96598 -0.965871 0.259022 -2102.33 1895.06)" fill="#E0E0E0"/>
<mask id="mask25_outline_ins">
<use xlink:href="#path34_fill" fill="white" transform="matrix(-0.258616 -0.96598 -0.965871 0.259022 -2102.33 1895.06)"/>
</mask>
<g mask="url(#mask25_outline_ins)">
<use xlink:href="#path35_stroke_2x" transform="matrix(-0.258616 -0.96598 -0.965871 0.259022 -2102.33 1895.06)"/>
</g>
</g>
<g id="Ellipse 8">
<use xlink:href="#path36_fill" transform="matrix(-1 5.55112e-17 -5.55112e-17 -1 -2107.44 1910.81)" fill="#EB5757"/>
<mask id="mask26_outline_ins">
<use xlink:href="#path36_fill" fill="white" transform="matrix(-1 5.55112e-17 -5.55112e-17 -1 -2107.44 1910.81)"/>
</mask>
<g mask="url(#mask26_outline_ins)">
<use xlink:href="#path37_stroke_2x" transform="matrix(-1 5.55112e-17 -5.55112e-17 -1 -2107.44 1910.81)"/>
</g>
</g>
</g>
</g>
<defs>
<linearGradient id="paint12_linear" x1="0" y1="0" x2="1" y2="0" gradientUnits="userSpaceOnUse" gradientTransform="matrix(-128.829 -4.36723e-14 9.27085e-09 -182.029 182.485 173.489)">
<stop offset="0.309392" stop-color="#AEAEAE"/>
<stop offset="0.535912" stop-color="#E0E0E0"/>
<stop offset="1" stop-color="#737373"/>
</linearGradient>
<radialGradient id="paint20_radial" cx="0.5" cy="0.5" r="0.5" gradientUnits="userSpaceOnUse" gradientTransform="matrix(2.00006 428 -619.393 2.89445 414.196 -136.947)">
<stop offset="0.298343" stop-color="#E4B5A4"/>
<stop offset="0.961326"/>
</radialGradient>
<radialGradient id="paint42_radial" cx="0.5" cy="0.5" r="0.5" gradientUnits="userSpaceOnUse" gradientTransform="matrix(2.00006 428 -619.393 2.89445 414.196 -136.947)">
<stop offset="0.154696" stop-color="#00D8C4" stop-opacity="0.7"/>
<stop offset="0.574586"/>
</radialGradient>
<path id="path0_fill" d="M 146.579 30.5632C 146.579 47.4428 113.766 61.1264 73.2896 61.1264C 32.8128 61.1264 0 47.4428 0 30.5632C 0 13.6836 32.8128 0 73.2896 0C 113.766 0 146.579 13.6836 146.579 30.5632Z"/>
<path id="path1_stroke_2x" d="M 141.579 30.5632C 141.579 33.0429 140.395 35.8567 137.309 38.8993C 134.028 42.1797 129.468 44.9576 123.189 47.5599C 110.421 52.9141 93.0671 56.1477 73.2896 56.1264L 73.2896 66.1264C 93.9887 66.1052 113.279 62.497 127.038 56.7895C 134.021 53.8609 140.194 50.053 144.33 46.0203C 148.661 41.7498 151.579 36.5233 151.579 30.5632L 141.579 30.5632ZM 73.2896 56.1264C 53.512 56.1477 36.1578 52.9141 23.3905 47.5599C 17.1112 44.9576 12.5508 42.1797 9.26988 38.8993C 6.18391 35.8567 5 33.0429 5 30.5632L -5 30.5632C -5 36.5233 -2.0823 41.7498 2.24903 46.0203C 6.3854 50.053 12.558 53.8609 19.5415 56.7895C 33.2998 62.497 52.5904 66.1052 73.2896 66.1264L 73.2896 56.1264ZM 5 30.5632C 5 28.0835 6.18391 25.2697 9.26988 22.2271C 12.5508 18.9467 17.1112 16.1688 23.3905 13.5666C 36.1578 8.21236 53.512 4.97872 73.2896 5L 73.2896 -5C 52.5904 -4.97872 33.2998 -1.37055 19.5415 4.33695C 12.558 7.26554 6.3854 11.0735 2.24903 15.1062C -2.0823 19.3766 -5 24.6031 -5 30.5632L 5 30.5632ZM 73.2896 5C 93.0671 4.97872 110.421 8.21236 123.189 13.5666C 129.468 16.1688 134.028 18.9467 137.309 22.2271C 140.395 25.2697 141.579 28.0835 141.579 30.5632L 151.579 30.5632C 151.579 24.6031 148.661 19.3766 144.33 15.1062C 140.194 11.0735 134.021 7.26554 127.038 4.33695C 113.279 -1.37055 93.9887 -4.97872 73.2896 -5L 73.2896 5Z"/>
<path id="path2_fill" d="M 58.5335 50.7508C 58.5335 78.7796 45.4303 101.502 29.2668 101.502C 13.1032 101.502 0 78.7796 0 50.7508C 0 22.7219 13.1032 0 29.2668 0C 45.4303 0 58.5335 22.7219 58.5335 50.7508Z"/>
<path id="path3_stroke_2x" d="M 53.5335 50.7508C 53.5335 64.0487 50.4146 75.8424 45.6301 84.1391C 40.7689 92.5689 34.803 96.5015 29.2668 96.5015L 29.2668 106.502C 39.8941 106.502 48.5616 99.0732 54.2929 89.1348C 60.1008 79.0633 63.5335 65.4817 63.5335 50.7508L 53.5335 50.7508ZM 29.2668 96.5015C 23.7305 96.5015 17.7646 92.5689 12.9034 84.1391C 8.1189 75.8424 5 64.0487 5 50.7508L -5 50.7508C -5 65.4817 -1.56731 79.0633 4.24064 89.1348C 9.97192 99.0732 18.6394 106.502 29.2668 106.502L 29.2668 96.5015ZM 5 50.7508C 5 37.4528 8.1189 25.6591 12.9034 17.3624C 17.7646 8.93266 23.7305 5 29.2668 5L 29.2668 -5C 18.6394 -5 9.97192 2.42828 4.24064 12.3667C -1.56731 22.4382 -5 36.0198 -5 50.7508L 5 50.7508ZM 29.2668 5C 34.803 5 40.7689 8.93266 45.6301 17.3624C 50.4146 25.6591 53.5335 37.4528 53.5335 50.7508L 63.5335 50.7508C 63.5335 36.0198 60.1008 22.4382 54.2929 12.3667C 48.5616 2.42828 39.8941 -5 29.2668 -5L 29.2668 5Z"/>
<path id="path4_fill" d="M 170.316 38.743C 170.316 60.1402 132.19 77.486 85.1581 77.486C 38.1266 77.486 0 60.1402 0 38.743C 0 17.3458 38.1266 0 85.1581 0C 132.19 0 170.316 17.3458 170.316 38.743Z"/>
<path id="path5_stroke_2x" d="M 165.316 38.743C 165.316 46.2776 158.376 54.7299 143.304 61.5873C 128.419 68.3939 108.172 72.5112 85.1581 72.486L 85.1581 82.486C 109.175 82.4608 131.508 77.9052 147.445 70.6896C 163.193 63.5248 175.316 52.6056 175.316 38.743L 165.316 38.743ZM 85.1581 72.486C 62.1439 72.5112 41.8969 68.3939 27.0128 61.5873C 11.9399 54.7299 5 46.2776 5 38.743L -5 38.743C -5 52.6056 7.12335 63.5248 22.8717 70.6896C 38.8087 77.9052 61.1409 82.4608 85.1581 82.486L 85.1581 72.486ZM 5 38.743C 5 31.2084 11.9399 22.7561 27.0128 15.8987C 41.8969 9.09206 62.1439 4.97479 85.1581 5L 85.1581 -5C 61.1409 -4.97479 38.8087 -0.419142 22.8717 6.79643C 7.12335 13.9612 -5 24.8804 -5 38.743L 5 38.743ZM 85.1581 5C 108.172 4.97479 128.419 9.09206 143.304 15.8987C 158.376 22.7561 165.316 31.2084 165.316 38.743L 175.316 38.743C 175.316 24.8804 163.193 13.9612 147.445 6.79643C 131.508 -0.419142 109.175 -4.97479 85.1581 -5L 85.1581 5Z"/>
<path id="path6_fill" d="M 170.285 38.75C 170.285 60.1511 132.166 77.5001 85.1427 77.5001C 38.1197 77.5001 0 60.1511 0 38.75C 0 17.349 38.1197 0 85.1427 0C 132.166 0 170.285 17.349 170.285 38.75Z"/>
<path id="path7_stroke_2x" d="M 165.285 38.75C 165.285 46.2875 158.346 54.7413 143.276 61.5996C 128.395 68.4074 108.152 72.5253 85.1427 72.5001L 85.1427 82.5001C 109.156 82.4749 131.484 77.9183 147.419 70.7013C 163.165 63.5349 175.285 52.6136 175.285 38.75L 165.285 38.75ZM 85.1427 72.5001C 62.1329 72.5253 41.8901 68.4074 27.0089 61.5996C 11.9397 54.7413 5 46.2875 5 38.75L -5 38.75C -5 52.6136 7.12019 63.5349 22.8665 70.7013C 38.8009 77.9183 61.1295 82.4749 85.1427 82.5001L 85.1427 72.5001ZM 5 38.75C 5 31.2126 11.9397 22.7588 27.0089 15.9005C 41.8901 9.09269 62.1329 4.97477 85.1427 5L 85.1427 -5C 61.1295 -4.97477 38.8009 -0.418193 22.8665 6.79878C 7.12019 13.9652 -5 24.8865 -5 38.75L 5 38.75ZM 85.1427 5C 108.152 4.97477 128.395 9.09269 143.276 15.9005C 158.346 22.7588 165.285 31.2126 165.285 38.75L 175.285 38.75C 175.285 24.8865 163.165 13.9652 147.419 6.79878C 131.484 -0.418193 109.156 -4.97477 85.1427 -5L 85.1427 5Z"/>
<path id="path8_fill" d="M 232.64 82.3242C 232.64 127.791 180.562 164.648 116.32 164.648C 52.0783 164.648 0 127.791 0 82.3242C 0 36.8578 52.0783 0 116.32 0C 180.562 0 232.64 36.8578 232.64 82.3242Z"/>
<path id="path9_stroke_2x" d="M 227.64 82.3242C 227.64 103.003 215.805 122.213 195.682 136.455C 175.572 150.688 147.529 159.648 116.32 159.648L 116.32 169.648C 149.353 169.648 179.47 160.18 201.459 144.618C 223.436 129.064 237.64 107.112 237.64 82.3242L 227.64 82.3242ZM 116.32 159.648C 85.1111 159.648 57.0681 150.688 36.9578 136.455C 16.8353 122.213 5 103.003 5 82.3242L -5 82.3242C -5 107.112 9.20386 129.064 31.1809 144.618C 53.1702 160.18 83.2873 169.648 116.32 169.648L 116.32 159.648ZM 5 82.3242C 5 61.6456 16.8353 42.435 36.9578 28.1935C 57.0681 13.9607 85.1111 5 116.32 5L 116.32 -5C 83.2873 -5 53.1702 4.46824 31.1809 20.0309C 9.20386 35.5849 -5 57.5365 -5 82.3242L 5 82.3242ZM 116.32 5C 147.529 5 175.572 13.9607 195.682 28.1935C 215.805 42.435 227.64 61.6456 227.64 82.3242L 237.64 82.3242C 237.64 57.5365 223.436 35.5849 201.459 20.0309C 179.47 4.46824 149.353 -5 116.32 -5L 116.32 5Z"/>
<path id="path10_fill" d="M 184.143 136.268C 156.895 143.879 126.056 128.17 93.3931 128.17C 60.7302 128.17 29.8915 143.879 2.6427 136.268C 0.915527 127.894 0 119.145 0 110.144C 0 49.313 41.8135 0 93.3931 0C 144.973 0 186.786 49.313 186.786 110.144C 186.786 119.145 185.871 127.894 184.143 136.268Z"/>
<path id="path11_stroke_2x" d="M 184.143 136.268L 185.489 141.084L 188.425 140.264L 189.04 137.278L 184.143 136.268ZM 2.6427 136.268L -2.25423 137.278L -1.63846 140.264L 1.29759 141.084L 2.6427 136.268ZM 182.798 131.452C 170.426 134.908 156.959 133.142 141.759 130.166C 126.681 127.215 110.329 123.206 93.3931 123.17L 93.3931 133.17C 109.12 133.133 124.519 136.979 139.838 139.98C 155.035 142.956 170.612 145.239 185.489 141.084L 182.798 131.452ZM 93.3931 123.17C 76.4568 123.206 60.1051 127.215 45.0268 130.166C 29.8269 133.142 16.3603 134.908 3.98781 131.452L 1.29759 141.084C 16.1738 145.239 31.751 142.956 46.9484 139.98C 62.2673 136.979 77.6664 133.133 93.3931 133.17L 93.3931 123.17ZM 7.53963 135.258C 5.85648 127.128 4.99321 118.884 5 110.144L -5 110.144C -4.99321 119.406 -4.02543 128.66 -2.25423 137.278L 7.53963 135.258ZM 5 110.144C 5 51.2694 45.3164 5 93.3931 5L 93.3931 -5C 38.3105 -5 -5 47.3567 -5 110.144L 5 110.144ZM 93.3931 5C 141.47 5 181.786 51.2694 181.786 110.144L 191.786 110.144C 191.786 47.3567 148.476 -5 93.3931 -5L 93.3931 5ZM 181.786 110.144C 181.793 118.884 180.93 127.128 179.247 135.258L 189.04 137.278C 190.812 128.66 191.779 119.406 191.786 110.144L 181.786 110.144Z"/>
<path id="path12_fill" d="M 253.199 124.513C 253.199 178.048 196.518 221.447 126.599 221.447C 56.6805 221.447 0 178.048 0 124.513C 0 27.58 56.6805 0 126.599 0C 196.518 0 253.199 27.58 253.199 124.513Z"/>
<path id="path13_stroke_2x" d="M 248.199 124.513C 248.199 174.128 195.079 216.447 126.599 216.447L 126.599 226.447C 197.958 226.447 258.199 181.968 258.199 124.513L 248.199 124.513ZM 126.599 216.447C 58.1196 216.447 5 174.128 5 124.513L -5 124.513C -5 181.968 55.2414 226.447 126.599 226.447L 126.599 216.447ZM 5 124.513C 5 77.0408 18.8399 47.5406 40.2731 29.7544C 61.8899 11.8159 92.1599 5 126.599 5L 126.599 -5C 91.1201 -5 58.0903 1.97416 33.8871 22.059C 9.50033 42.2962 -5 75.0527 -5 124.513L 5 124.513ZM 126.599 5C 161.039 5 191.309 11.8159 212.926 29.7544C 234.359 47.5406 248.199 77.0408 248.199 124.513L 258.199 124.513C 258.199 75.0527 243.699 42.2962 219.312 22.059C 195.109 1.97416 162.079 -5 126.599 -5L 126.599 5Z"/>
<path id="path14_fill" d="M 43 31C 43 48.1208 33.3741 62 21.5 62C 9.62588 62 0 48.1208 0 31C 0 13.8792 9.62588 0 21.5 0C 33.3741 0 43 13.8792 43 31Z"/>
<path id="path15_stroke_2x" d="M 38 31C 38 38.6702 35.8355 45.3973 32.5942 50.0708C 29.3398 54.7633 25.3366 57 21.5 57L 21.5 67C 29.5375 67 36.2843 62.2972 40.8114 55.7698C 45.3515 49.2235 48 40.4506 48 31L 38 31ZM 21.5 57C 17.6634 57 13.6602 54.7633 10.4058 50.0708C 7.16449 45.3973 5 38.6702 5 31L -5 31C -5 40.4506 -2.35155 49.2235 2.18863 55.7698C 6.71566 62.2972 13.4625 67 21.5 67L 21.5 57ZM 5 31C 5 23.3298 7.16449 16.6027 10.4058 11.9292C 13.6602 7.23674 17.6634 5 21.5 5L 21.5 -5C 13.4625 -5 6.71566 -0.297154 2.18863 6.23019C -2.35155 12.7765 -5 21.5494 -5 31L 5 31ZM 21.5 5C 25.3366 5 29.3398 7.23674 32.5942 11.9292C 35.8355 16.6027 38 23.3298 38 31L 48 31C 48 21.5494 45.3515 12.7765 40.8114 6.23019C 36.2843 -0.297154 29.5375 -5 21.5 -5L 21.5 5Z"/>
<path id="path16_fill" d="M 220.44 76.162C 220.44 118.225 171.193 152.324 110.444 152.324C 49.6946 152.324 3.75108 118.095 0.447618 76.162C -5.55237 0 49.6946 0 110.444 0C 171.193 0 220.44 0 220.44 76.162Z"/>
<path id="path17_stroke_2x" d="M 0.447618 76.162L 5.43217 75.7693L 0.447618 76.162ZM 215.44 76.162C 215.44 95.0893 204.365 112.758 185.377 125.906C 166.407 139.04 139.93 147.324 110.444 147.324L 110.444 157.324C 141.707 157.324 170.228 148.558 191.069 134.127C 211.891 119.71 225.44 99.2977 225.44 76.162L 215.44 76.162ZM 110.444 147.324C 51.0432 147.324 8.44477 114.01 5.43217 75.7693L -4.53694 76.5547C -0.942597 122.18 48.346 157.324 110.444 157.324L 110.444 147.324ZM 5.43217 75.7693C 3.97575 57.2819 6.2871 43.9842 11.0443 34.3433C 15.8025 24.4768 22.7974 18.482 32.5077 14.0611C 51.9446 5.1025 79.657 5 110.444 5L 110.444 -5C 80.4815 -5 50.1957 -5.1025 28.3219 4.97936C 17.3767 10.0787 7.8881 18.3643 2.07658 29.9183C -3.73598 41.698 -6.08051 56.961 -4.53694 76.5547L 5.43217 75.7693ZM 110.444 5C 141.243 5 167.411 5.10893 186.066 14.0309C 195.412 18.447 202.287 24.4955 207.359 34.4365C 212.436 44.2046 215.44 57.6171 215.44 76.162L 225.44 76.162C 225.44 56.6258 222.288 41.4776 216.233 29.8251C 210.173 18.3456 200.94 10.1138 190.38 5.0096C 169.224 -5.10893 140.394 -5 110.444 -5L 110.444 5Z"/>
<path id="path18_fill" d="M 51.4788 38.5C 51.4788 59.763 39.9549 77 25.7394 77C 11.5239 77 0 59.763 0 38.5C 0 17.237 11.5239 0 25.7394 0C 39.9549 0 51.4788 17.237 51.4788 38.5Z"/>
<path id="path19_stroke_2x" d="M 46.4788 38.5C 46.4788 48.2792 43.8198 56.907 39.7833 62.9447C 35.7242 69.016 30.6618 72 25.7394 72L 25.7394 82C 35.0324 82 42.8397 76.3655 48.0965 68.5025C 53.3758 60.6059 56.4788 49.9838 56.4788 38.5L 46.4788 38.5ZM 25.7394 72C 20.8169 72 15.7545 69.016 11.6955 62.9447C 7.659 56.907 5 48.2792 5 38.5L -5 38.5C -5 49.9838 -1.89705 60.6059 3.38227 68.5025C 8.63908 76.3655 16.4464 82 25.7394 82L 25.7394 72ZM 5 38.5C 5 28.7208 7.659 20.093 11.6955 14.0553C 15.7545 7.98399 20.8169 5 25.7394 5L 25.7394 -5C 16.4464 -5 8.63908 0.634524 3.38227 8.49745C -1.89705 16.3941 -5 27.0162 -5 38.5L 5 38.5ZM 25.7394 5C 30.6618 5 35.7242 7.98399 39.7833 14.0553C 43.8198 20.093 46.4788 28.7208 46.4788 38.5L 56.4788 38.5C 56.4788 27.0162 53.3758 16.3941 48.0965 8.49745C 42.8397 0.634524 35.0324 -5 25.7394 -5L 25.7394 5Z"/>
<path id="path20_fill" d="M 25 19C 25 29.4934 19.4036 38 12.5 38C 5.59644 38 0 29.4934 0 19C 0 8.50659 5.59644 0 12.5 0C 19.4036 0 25 8.50659 25 19Z"/>
<path id="path21_stroke_2x" d="M 20 19C 20 23.4105 18.8146 27.1746 17.1617 29.6869C 15.4817 32.2406 13.7287 33 12.5 33L 12.5 43C 18.1749 43 22.6718 39.5061 25.5159 35.1831C 28.3871 30.8188 30 25.0829 30 19L 20 19ZM 12.5 33C 11.2713 33 9.51827 32.2406 7.83825 29.6869C 6.18537 27.1746 5 23.4105 5 19L -5 19C -5 25.0829 -3.38715 30.8188 -0.51592 35.1831C 2.32817 39.5061 6.82515 43 12.5 43L 12.5 33ZM 5 19C 5 14.5895 6.18537 10.8254 7.83825 8.31305C 9.51827 5.75942 11.2713 5 12.5 5L 12.5 -5C 6.82515 -5 2.32817 -1.50612 -0.51592 2.81689C -3.38715 7.18116 -5 12.9171 -5 19L 5 19ZM 12.5 5C 13.7287 5 15.4817 5.75942 17.1617 8.31305C 18.8146 10.8254 20 14.5895 20 19L 30 19C 30 12.9171 28.3871 7.18116 25.5159 2.81689C 22.6718 -1.50612 18.1749 -5 12.5 -5L 12.5 5Z"/>
<path id="path22_fill" d="M 70.7215 31.1572C 70.7215 48.3648 54.8899 62.3143 35.3607 62.3143C 15.8315 62.3143 0 48.3648 0 31.1572C 0 13.9495 15.8315 0 35.3607 0C 54.8899 0 70.7215 13.9495 70.7215 31.1572Z"/>
<path id="path23_stroke_2x" d="M 65.7215 31.1572C 65.7215 45.0275 52.7419 57.3143 35.3607 57.3143L 35.3607 67.3143C 57.038 67.3143 75.7215 51.7021 75.7215 31.1572L 65.7215 31.1572ZM 35.3607 57.3143C 17.9796 57.3143 5 45.0275 5 31.1572L -5 31.1572C -5 51.7021 13.6835 67.3143 35.3607 67.3143L 35.3607 57.3143ZM 5 31.1572C 5 17.2868 17.9796 5 35.3607 5L 35.3607 -5C 13.6835 -5 -5 10.6123 -5 31.1572L 5 31.1572ZM 35.3607 5C 52.7419 5 65.7215 17.2868 65.7215 31.1572L 75.7215 31.1572C 75.7215 10.6123 57.038 -5 35.3607 -5L 35.3607 5Z"/>
<path id="path24_fill" d="M 25.8446 29.5593C 25.8446 45.8844 20.0591 59.1186 12.9223 59.1186C 5.78551 59.1186 0 45.8844 0 29.5593C 0 13.2341 5.78551 0 12.9223 0C 20.0591 0 25.8446 13.2341 25.8446 29.5593Z"/>
<path id="path25_stroke_2x" d="M 22.8446 29.5593C 22.8586 37.4324 21.5346 44.2174 19.3109 49.2592C 18.2461 51.7186 17.1783 53.3978 15.8662 54.6396C 14.7035 55.7646 13.7131 56.1186 12.9223 56.1186L 12.9223 62.1186C 15.6999 62.1186 18.109 60.8183 20.0382 58.9517C 21.8181 57.202 23.5348 54.5523 24.8085 51.6626C 27.2618 46.006 28.8306 38.0113 28.8446 29.5593L 22.8446 29.5593ZM 12.9223 56.1186C 12.1315 56.1186 11.1411 55.7646 9.97836 54.6396C 8.66626 53.3978 7.59844 51.7186 6.53366 49.2592C 4.30998 44.2174 2.986 37.4324 3 29.5593L -3 29.5593C -2.986 38.0113 -1.41722 46.006 1.03604 51.6626C 2.30974 54.5523 4.02644 57.202 5.80634 58.9517C 7.73558 60.8183 10.1447 62.1186 12.9223 62.1186L 12.9223 56.1186ZM 3 29.5593C 2.986 21.6862 4.30998 14.9012 6.53366 9.8594C 7.59844 7.39996 8.66626 5.7208 9.97836 4.47897C 11.1411 3.35398 12.1315 3 12.9223 3L 12.9223 -3C 10.1447 -3 7.73558 -1.69971 5.80634 0.166867C 4.02644 1.91659 2.30974 4.5663 1.03604 7.45603C -1.41722 13.1126 -2.986 21.1073 -3 29.5593L 3 29.5593ZM 12.9223 3C 13.7131 3 14.7035 3.35398 15.8662 4.47897C 17.1783 5.7208 18.2461 7.39996 19.3109 9.8594C 21.5346 14.9012 22.8586 21.6862 22.8446 29.5593L 28.8446 29.5593C 28.8306 21.1073 27.2618 13.1126 24.8085 7.45603C 23.5348 4.5663 21.8181 1.91659 20.0382 0.166867C 18.109 -1.69971 15.6999 -3 12.9223 -3L 12.9223 3Z"/>
<path id="path26_fill" d="M 4.87598 114.223C 4.89125 113.442 4.99789 112.666 5.19373 111.91L 23.6631 40.6281C 25.1479 34.8977 33.5996 36.0452 33.5026 41.964L 28.397 353.673C 28.3076 359.131 23.8573 363.509 18.3983 363.509L 10.1975 363.509C 4.59813 363.509 0.0899212 358.912 0.199423 353.313L 4.87598 114.223Z"/>
<path id="path27_stroke_2x" d="M 5.19373 111.91L 8.09783 112.663L 5.19373 111.91ZM 8.09783 112.663L 26.5672 41.3805L 20.759 39.8756L 2.28963 111.158L 8.09783 112.663ZM 30.503 41.9149L 25.3974 353.623L 31.3966 353.722L 36.5022 42.0132L 30.503 41.9149ZM 18.3983 360.509L 10.1975 360.509L 10.1975 366.509L 18.3983 366.509L 18.3983 360.509ZM 3.19885 353.372L 7.87541 114.281L 1.87655 114.164L -2.8 353.255L 3.19885 353.372ZM 2.28963 111.158C 2.05477 112.084 1.90038 113.208 1.87655 114.164L 7.87541 114.281C 7.88212 113.676 7.94101 113.247 8.09783 112.663L 2.28963 111.158ZM 26.5672 41.3805C 27.1611 39.0884 30.5418 39.5474 30.503 41.9149L 36.5022 42.0132C 36.6573 32.5431 23.1346 30.707 20.759 39.8756L 26.5672 41.3805ZM 25.3974 353.623C 25.3348 357.444 22.2196 360.509 18.3983 360.509L 18.3983 366.509C 25.495 366.509 31.2804 360.817 31.3966 353.722L 25.3974 353.623ZM 10.1975 360.509C 6.27795 360.509 3.1222 357.291 3.19885 353.372L -2.8 353.255C -2.94236 360.532 2.91832 366.509 10.1975 366.509L 10.1975 360.509Z"/>
<path id="path28_fill" d="M 32 10.9302C 32 16.9668 23.7603 17 14.9237 17C 6.08718 17 0 16.9668 0 10.9302C 0 4.89363 7.16344 0 16 0C 24.8366 0 32 4.89363 32 10.9302Z"/>
<path id="path29_stroke_2x" d="M 27 10.9302C 27.1132 11.3817 26.8937 10.8906 27.1582 10.7744C 27.268 10.6434 27.1556 10.8257 26.8189 10.9697C 26.4494 11.1509 26.1974 11.2293 25.6038 11.3681C 23.1449 11.9608 19.5549 12 14.9237 12L 14.9237 22C 19.1292 22 24.0772 22.0226 27.9474 21.0896C 29.929 20.6119 32.1849 19.766 33.9907 18.0763C 35.9762 16.2184 37 13.7321 37 10.9302L 27 10.9302ZM 14.9237 12C 10.2061 12 7.32436 11.9448 5.54284 11.4273C 4.7482 11.2279 4.88642 11.0351 4.9331 11.2278C 5.11906 11.3178 4.93465 11.6336 5 10.9302L -5 10.9302C -5 13.3122 -4.37982 15.6693 -2.75471 17.6229C -1.18623 19.5084 0.880168 20.4863 2.75348 21.0304C 6.22468 22.0387 10.8048 22 14.9237 22L 14.9237 12ZM 5 10.9302C 5 10.0471 5.52042 8.68689 7.5067 7.32999C 9.46839 5.98988 12.4561 5 16 5L 16 -5C 10.7073 -5 5.69505 -3.54306 1.86589 -0.927206C -1.9387 1.67185 -5 5.77676 -5 10.9302L 5 10.9302ZM 16 5C 19.5439 5 22.5316 5.98988 24.4933 7.32999C 26.4796 8.68689 27 10.0471 27 10.9302L 37 10.9302C 37 5.77676 33.9387 1.67185 30.1341 -0.927206C 26.3049 -3.54306 21.2927 -5 16 -5L 16 5Z"/>
<path id="path30_fill" d="M 33.3123 38.7099C 33.3123 60.0888 25.0609 77.4198 14.8822 77.4198C -15.11 77.4499 13.3499 58.8659 13.3499 37.487C 13.3499 16.1081 -17.6842 3.51427 14.8822 0C 25.0609 0 33.3123 17.331 33.3123 38.7099Z"/>
<path id="path31_stroke_2x" d="M 14.8822 77.4198L 14.8822 72.4198L 14.8772 72.4198L 14.8822 77.4198ZM 14.8822 0L 14.8822 -5L 14.6133 -5L 14.3458 -4.97114L 14.8822 0ZM 28.3123 38.7099C 28.3398 48.8753 26.5146 57.4699 23.3998 63.9326C 20.2719 70.5022 16.9281 72.4198 14.8822 72.4198L 14.8822 82.4198C 23.015 82.4198 28.8862 75.6719 32.4287 68.2313C 35.9842 60.6837 38.2847 49.9234 38.3123 38.7099L 28.3123 38.7099ZM 14.8772 72.4198C 11.3828 72.4298 9.18438 72.2158 7.47018 71.7521C 6.04873 71.4322 5.87436 70.8872 5.99404 71.205C 6.16733 71.1929 6.0139 71.8493 6.16976 71.1225C 6.27207 70.1805 6.6505 69.2152 7.41118 67.572C 8.96854 64.1684 11.5858 59.8477 13.9086 54.8516C 16.2097 49.8684 18.2815 43.6564 18.3499 37.487L 8.34994 37.487C 8.41841 42.0071 6.93267 46.1352 4.83483 50.6484C 2.75863 55.1487 0.135442 59.4805 -1.67314 63.3916C -2.59544 65.4057 -3.43135 67.7632 -3.73527 69.7476C -4.05466 72.0486 -3.82088 74.7781 -2.01431 77.1938C -0.292864 79.4958 2.28441 80.7323 4.94055 81.4268C 7.41064 82.0572 10.8836 82.4173 14.8873 82.4198L 14.8772 72.4198ZM 18.3499 37.487C 18.2579 31.1874 15.9133 25.1734 13.3612 20.6421C 10.771 16.0916 7.88519 12.3673 6.21173 9.50647C 5.36533 8.06966 5.07619 7.27288 5.00895 6.89425C 4.85769 6.49933 4.90026 7.60191 4.7486 7.53005C 4.51492 7.92568 5.24338 7.02789 6.98375 6.50704C 8.95936 5.86806 11.5442 5.3853 15.4187 4.97114L 14.3458 -4.97114C 10.0787 -4.50673 6.50941 -3.82719 3.94877 -3.02128C 1.30551 -2.17934 -1.21568 -0.938124 -2.94093 1.137C -4.8882 3.47916 -5.2719 6.19372 -4.83701 8.64271C -4.44775 10.8347 -3.40188 12.8889 -2.40441 14.5821C -0.390142 17.9814 2.4472 21.6337 4.65818 25.5672C 6.90733 29.52 8.44198 33.0973 8.34994 37.487L 18.3499 37.487ZM 14.8822 5C 16.9281 5 20.2719 6.91759 23.3998 13.4872C 26.5146 19.9499 28.3398 28.5445 28.3123 38.7099L 38.3123 38.7099C 38.2847 27.4964 35.9842 16.7361 32.4287 9.18851C 28.8862 1.74791 23.015 -5 14.8822 -5L 14.8822 5Z"/>
<path id="path32_fill" d="M 148.864 78.1724C 126.835 82.5387 101.905 78.1724 75.5 78.1724C 49.0949 78.1724 24.1646 82.5387 2.13639 78.1724C 0.740122 73.3684 0 68.3495 0 63.1858C 0 28.2892 33.8025 0 75.5 0C 117.197 0 151 28.2892 151 63.1858C 151 68.3495 150.26 73.3684 148.864 78.1724Z"/>
<path id="path33_stroke_2x" d="M 148.864 78.1724L 149.836 83.077L 152.817 82.4862L 153.665 79.5679L 148.864 78.1724ZM 2.13639 78.1724L -2.66493 79.5679L -1.81676 82.4862L 1.16425 83.077L 2.13639 78.1724ZM 147.891 73.2679C 137.361 75.3795 126.221 75.3568 114.045 74.8147C 101.859 74.2744 88.9146 73.1769 75.5 73.1724L 75.5 83.1724C 88.4905 83.1679 101.214 84.2536 113.601 84.8049C 125.999 85.3543 138.338 85.3316 149.836 83.077L 147.891 73.2679ZM 75.5 73.1724C 62.0854 73.1769 49.1407 74.2744 36.955 74.8147C 24.7792 75.3568 13.6389 75.3795 3.10853 73.2679L 1.16425 83.077C 12.6621 85.3316 25.0011 85.3543 37.3988 84.8049C 49.7865 84.2536 62.5095 83.1679 75.5 83.1724L 75.5 73.1724ZM 6.93771 76.777C 5.6254 72.3035 4.98661 67.9838 5 63.1858L -5 63.1858C -4.98661 68.7152 -4.14515 74.4333 -2.66493 79.5679L 6.93771 76.777ZM 5 63.1858C 5 31.8476 35.6931 5 75.5 5L 75.5 -5C 31.9119 -5 -5 24.7309 -5 63.1858L 5 63.1858ZM 75.5 5C 115.307 5 146 31.8476 146 63.1858L 156 63.1858C 156 24.7309 119.088 -5 75.5 -5L 75.5 5ZM 146 63.1858C 146.013 67.9838 145.375 72.3035 144.062 76.777L 153.665 79.5679C 155.145 74.4333 155.987 68.7152 156 63.1858L 146 63.1858Z"/>
<path id="path34_fill" d="M 117.037 40.3883C 117.037 61.7854 85.1581 77.486 85.1581 77.486C 38.1266 77.486 0 60.1402 0 38.743C 0 17.3458 38.1266 5.01096e-23 85.1581 5.01096e-23C 114.489 -3.56209e-11 117.037 18.9911 117.037 40.3883Z"/>
<path id="path35_stroke_2x" d="M 85.1581 77.486L 85.1581 82.486L 86.3226 82.486L 87.3673 81.9715L 85.1581 77.486ZM 85.1581 5.01096e-23L 85.1581 5L 85.1581 5.01096e-23ZM 112.037 40.3883C 112.037 48.6793 105.705 56.6542 97.9086 63.1101C 94.1364 66.2434 90.4567 68.6655 87.553 70.4193C 86.1306 71.2798 84.9901 71.9174 84.1507 72.3709C 83.7448 72.5904 83.4466 72.7462 83.2273 72.8591C 83.1243 72.9122 83.0553 72.9472 83.0016 72.9741C 82.9781 72.986 82.965 72.9925 82.953 72.9985C 82.9485 73.0007 82.9476 73.0012 82.9453 73.0023C 82.945 73.0025 82.9456 73.0022 82.9457 73.0021C 82.946 73.002 82.9469 73.0016 82.947 73.0015C 82.948 73.001 82.949 73.0005 85.1581 77.486C 87.3673 81.9715 87.3686 81.9709 87.37 81.9702C 87.3707 81.9698 87.3722 81.9691 87.3735 81.9685C 87.3752 81.9676 87.3791 81.9657 87.3826 81.9639C 87.3881 81.9612 87.3987 81.956 87.4096 81.9506C 87.4281 81.9413 87.4608 81.925 87.4976 81.9065C 87.5646 81.8727 87.6745 81.817 87.805 81.7498C 88.0527 81.6222 88.4394 81.4199 88.9052 81.1683C 89.8092 80.6796 91.1593 79.9234 92.7255 78.9777C 95.7991 77.1189 100.089 74.2786 104.287 70.8121C 112.43 64.0684 122.037 53.4944 122.037 40.3883L 112.037 40.3883ZM 85.1581 72.486C 62.1439 72.5112 41.8969 68.3939 27.0128 61.5873C 11.9399 54.7299 5 46.2776 5 38.743L -5 38.743C -5 52.6056 7.12335 63.5248 22.8717 70.6896C 38.8087 77.9052 61.1409 82.4608 85.1581 82.486L 85.1581 72.486ZM 5 38.743C 5 31.2084 11.9399 22.7561 27.0128 15.8987C 41.8969 9.09206 62.1439 4.97479 85.1581 5L 85.1581 -5C 61.1409 -4.97479 38.8087 -0.419142 22.8717 6.79643C 7.12335 13.9612 -5 24.8804 -5 38.743L 5 38.743ZM 85.1581 5C 98.6234 5 104.62 9.24365 107.771 14.6781C 111.314 20.7893 112.037 29.5777 112.037 40.3883L 122.037 40.3883C 122.037 29.8017 121.486 18.3959 116.422 9.6623C 110.966 0.251898 101.024 -5 85.1581 -5L 85.1581 5Z"/>
<path id="path36_fill" d="M 70 20C 70 37.1208 54.33 51 35 51C 15.67 51 0 37.1208 0 20C 0 2.87917 15.67 0 35 0C 54.33 0 70 2.87917 70 20Z"/>
<path id="path37_stroke_2x" d="M 65 20C 65 33.8063 52.1562 46 35 46L 35 56C 56.5038 56 75 40.4353 75 20L 65 20ZM 35 46C 17.8438 46 5 33.8063 5 20L -5 20C -5 40.4353 13.4962 56 35 56L 35 46ZM 5 20C 4.95065 16.4206 5.51832 14.4268 6.92071 12.4106C 8.17819 10.3848 9.65131 9.30043 12.3089 8.13668C 17.5747 5.75898 25.3568 5 35 5L 35 -5C 25.3132 -5 15.5953 -4.31939 8.19363 -0.9773C 4.51747 0.718843 0.864949 3.56446 -1.41976 6.89369C -3.55957 10.2326 -4.95065 15.019 -5 20L 5 20ZM 35 5C 44.6432 5 52.4253 5.75898 57.6911 8.13668C 60.3487 9.30043 61.8218 10.3848 63.0793 12.4106C 64.4817 14.4268 65.0494 16.4206 65 20L 75 20C 74.9506 15.019 73.5596 10.2326 71.4198 6.89369C 69.1351 3.56446 65.4825 0.718843 61.8064 -0.9773C 54.4047 -4.31939 44.6868 -5 35 -5L 35 5Z"/>
</defs>
</svg>
