<svg width="500" height="500" viewBox="0 0 500 500" version="1.1" xmlns="http://www.w3.org/2000/svg" xmlns:xlink="http://www.w3.org/1999/xlink">
<title>Left</title>
<desc>Created using Figma</desc>
<g id="Canvas" transform="translate(2973 -1416)">
<clipPath id="clip-0" clip-rule="evenodd">
<path d="M -2973 1416L -2473 1416L -2473 1916L -2973 1916L -2973 1416Z" fill="#FFFFFF"/>
</clipPath>
<g id="Left" clip-path="url(#clip-0)">
<g id="Ellipse 6">
<use xlink:href="#path0_fill" transform="matrix(0.986674 -0.162708 0.162674 0.98668 -2854 1747.85)" fill="#A9A9A9"/>
<mask id="mask0_outline_ins">
<use xlink:href="#path0_fill" fill="white" transform="matrix(0.986674 -0.162708 0.162674 0.98668 -2854 1747.85)"/>
</mask>
<g mask="url(#mask0_outline_ins)">
<use xlink:href="#path1_stroke_2x" transform="matrix(0.986674 -0.162708 0.162674 0.98668 -2854 1747.85)"/>
</g>
</g>
<g id="Ellipse 6">
<use xlink:href="#path2_fill" transform="matrix(-6.11809e-17 -1 -1 6.12838e-17 -2659 1820.47)" fill="url(#paint2_linear)"/>
<mask id="mask1_outline_ins">
<use xlink:href="#path2_fill" fill="white" transform="matrix(-6.11809e-17 -1 -1 6.12838e-17 -2659 1820.47)"/>
</mask>
<g mask="url(#mask1_outline_ins)">
<use xlink:href="#path3_stroke_2x" transform="matrix(-6.11809e-17 -1 -1 6.12838e-17 -2659 1820.47)"/>
</g>
</g>
<g id="Intersect">
<use xlink:href="#path4_fill" transform="matrix(-1 0 0 1 -2650 1592)" fill="#0A4CA5"/>
<mask id="mask2_outline_ins">
<use xlink:href="#path4_fill" fill="white" transform="matrix(-1 0 0 1 -2650 1592)"/>
</mask>
<g mask="url(#mask2_outline_ins)">
<use xlink:href="#path5_stroke_2x" transform="matrix(-1 0 0 1 -2650 1592)"/>
</g>
</g>
<g id="Ellipse 6">
<use xlink:href="#path6_fill" transform="translate(-2813 1495)" fill="url(#paint6_radial)"/>
<mask id="mask3_outline_ins">
<use xlink:href="#path6_fill" fill="white" transform="translate(-2813 1495)"/>
</mask>
<g mask="url(#mask3_outline_ins)">
<use xlink:href="#path7_stroke_2x" transform="translate(-2813 1495)"/>
</g>
</g>
<g id="Ellipse 8">
<use xlink:href="#path8_fill" transform="matrix(-0.811982 -0.583682 -0.583682 0.811982 -2783.85 1765.56)" fill="#EB5757"/>
<mask id="mask4_outline_ins">
<use xlink:href="#path8_fill" fill="white" transform="matrix(-0.811982 -0.583682 -0.583682 0.811982 -2783.85 1765.56)"/>
</mask>
<g mask="url(#mask4_outline_ins)">
<use xlink:href="#path9_stroke_2x" transform="matrix(-0.811982 -0.583682 -0.583682 0.811982 -2783.85 1765.56)"/>
</g>
</g>
<g id="Group">
<g id="Ellipse 6">
<use xlink:href="#path10_fill" transform="matrix(-1 0 0 1 -2768 1539)" fill="#FFFFFF"/>
<mask id="mask5_outline_ins">
<use xlink:href="#path10_fill" fill="white" transform="matrix(-1 0 0 1 -2768 1539)"/>
</mask>
<g mask="url(#mask5_outline_ins)">
<use xlink:href="#path11_stroke_2x" transform="matrix(-1 0 0 1 -2768 1539)"/>
</g>
</g>
<g id="Ellipse 6">
<use xlink:href="#path12_fill" transform="matrix(-1 0 0 1 -2776.64 1562)" fill="#030303"/>
<mask id="mask6_outline_ins">
<use xlink:href="#path12_fill" fill="white" transform="matrix(-1 0 0 1 -2776.64 1562)"/>
</mask>
<g mask="url(#mask6_outline_ins)">
<use xlink:href="#path13_stroke_2x" transform="matrix(-1 0 0 1 -2776.64 1562)"/>
</g>
</g>
</g>
<g id="Ellipse 8">
<use xlink:href="#path14_fill" transform="matrix(-1 -6.93889e-18 -6.93889e-18 1 -2783 1628)" fill="#EB5757"/>
<mask id="mask7_outline_ins">
<use xlink:href="#path14_fill" fill="white" transform="matrix(-1 -6.93889e-18 -6.93889e-18 1 -2783 1628)"/>
</mask>
<g mask="url(#mask7_outline_ins)">
<use xlink:href="#path15_stroke_2x" transform="matrix(-1 -6.93889e-18 -6.93889e-18 1 -2783 1628)"/>
</g>
</g>
<g id="Intersect">
<use xlink:href="#path16_fill" transform="translate(-2805 1616)" fill="#383735"/>
<mask id="mask8_outline_ins">
<use xlink:href="#path16_fill" fill="white" transform="translate(-2805 1616)"/>
</mask>
<g mask="url(#mask8_outline_ins)">
<use xlink:href="#path17_stroke_2x" transform="translate(-2805 1616)"/>
</g>
</g>
<g id="Ellipse 9">
<use xlink:href="#path18_fill" transform="translate(-2836.93 1445)" fill="url(#paint18_radial)" fill-opacity="0.7"/>
<mask id="mask9_outline_ins">
<use xlink:href="#path18_fill" fill="white" transform="translate(-2836.93 1445)"/>
</mask>
<g mask="url(#mask9_outline_ins)">
<use xlink:href="#path19_stroke_2x" transform="translate(-2836.93 1445)"/>
</g>
</g>
<g id="Subtract">
<use xlink:href="#path20_fill" transform="translate(-2825.16 1445)" fill="#C4C4C4"/>
<mask id="mask10_outline_ins">
<use xlink:href="#path20_fill" fill="white" transform="translate(-2825.16 1445)"/>
</mask>
<g mask="url(#mask10_outline_ins)">
<use xlink:href="#path21_stroke_2x" transform="translate(-2825.16 1445)"/>
</g>
</g>
<g id="Ellipse 6">
<use xlink:href="#path22_fill" transform="matrix(-0.686706 -0.726935 0.727223 -0.686401 -2642.63 1884.28)" fill="#E0E0E0"/>
<mask id="mask11_outline_ins">
<use xlink:href="#path22_fill" fill="white" transform="matrix(-0.686706 -0.726935 0.727223 -0.686401 -2642.63 1884.28)"/>
</mask>
<g mask="url(#mask11_outline_ins)">
<use xlink:href="#path23_stroke_2x" transform="matrix(-0.686706 -0.726935 0.727223 -0.686401 -2642.63 1884.28)"/>
</g>
</g>
<g id="Intersect">
<use xlink:href="#path24_fill" transform="matrix(-1 1.22465e-16 -1.22465e-16 -1 -2659 1837)" fill="#0A4CA5"/>
<mask id="mask12_outline_ins">
<use xlink:href="#path24_fill" fill="white" transform="matrix(-1 1.22465e-16 -1.22465e-16 -1 -2659 1837)"/>
</mask>
<g mask="url(#mask12_outline_ins)">
<use xlink:href="#path25_stroke_2x" transform="matrix(-1 1.22465e-16 -1.22465e-16 -1 -2659 1837)"/>
</g>
</g>
<g id="Ellipse 6">
<use xlink:href="#path0_fill" transform="matrix(0.440808 -0.897602 0.897586 0.440838 -2765.25 1769.01)" fill="#A9A9A9"/>
<mask id="mask13_outline_ins">
<use xlink:href="#path0_fill" fill="white" transform="matrix(0.440808 -0.897602 0.897586 0.440838 -2765.25 1769.01)"/>
</mask>
<g mask="url(#mask13_outline_ins)">
<use xlink:href="#path1_stroke_2x" transform="matrix(0.440808 -0.897602 0.897586 0.440838 -2765.25 1769.01)"/>
</g>
</g>
<g id="Ellipse 6">
<use xlink:href="#path26_fill" transform="matrix(0.785227 0.619208 -0.619234 0.785206 -2783.83 1684.74)" fill="#A9A9A9"/>
<mask id="mask14_outline_ins">
<use xlink:href="#path26_fill" fill="white" transform="matrix(0.785227 0.619208 -0.619234 0.785206 -2783.83 1684.74)"/>
</mask>
<g mask="url(#mask14_outline_ins)">
<use xlink:href="#path27_stroke_2x" transform="matrix(0.785227 0.619208 -0.619234 0.785206 -2783.83 1684.74)"/>
</g>
</g>
<g id="Ellipse 6">
<use xlink:href="#path28_fill" transform="matrix(1 -2.77556e-17 0.00038297 1 -2732.52 1645.83)" fill="#F2F2F2"/>
<mask id="mask15_outline_ins">
<use xlink:href="#path28_fill" fill="white" transform="matrix(1 -2.77556e-17 0.00038297 1 -2732.52 1645.83)"/>
</mask>
<g mask="url(#mask15_outline_ins)">
<use xlink:href="#path29_stroke_2x" transform="matrix(1 -2.77556e-17 0.00038297 1 -2732.52 1645.83)"/>
</g>
</g>
<g id="Group">
<g id="Ellipse 8">
<use xlink:href="#path30_fill" transform="matrix(-0.258819 -0.965926 0.965926 -0.258819 -2862.41 1769.81)" fill="#323232"/>
<mask id="mask16_outline_ins">
<use xlink:href="#path30_fill" fill="white" transform="matrix(-0.258819 -0.965926 0.965926 -0.258819 -2862.41 1769.81)"/>
</mask>
<g mask="url(#mask16_outline_ins)">
<use xlink:href="#path31_stroke_2x" transform="matrix(-0.258819 -0.965926 0.965926 -0.258819 -2862.41 1769.81)"/>
</g>
</g>
<g id="Rectangle 2">
<use xlink:href="#path32_fill" transform="matrix(-0.965926 0.258819 0.258819 0.965926 -2917.98 1400)" fill="#00E1CC" fill-opacity="0.96"/>
<mask id="mask17_outline_ins">
<use xlink:href="#path32_fill" fill="white" transform="matrix(-0.965926 0.258819 0.258819 0.965926 -2917.98 1400)"/>
</mask>
<g mask="url(#mask17_outline_ins)">
<use xlink:href="#path33_stroke_2x" transform="matrix(-0.965926 0.258819 0.258819 0.965926 -2917.98 1400)"/>
</g>
</g>
</g>
<g id="Ellipse 8">
<use xlink:href="#path8_fill" transform="matrix(-0.116111 -0.993236 -0.993236 0.116111 -2756.9 1736.24)" fill="#EB5757"/>
<mask id="mask18_outline_ins">
<use xlink:href="#path8_fill" fill="white" transform="matrix(-0.116111 -0.993236 -0.993236 0.116111 -2756.9 1736.24)"/>
</mask>
<g mask="url(#mask18_outline_ins)">
<use xlink:href="#path9_stroke_2x" transform="matrix(-0.116111 -0.993236 -0.993236 0.116111 -2756.9 1736.24)"/>
</g>
</g>
<g id="Ellipse 6">
<use xlink:href="#path22_fill" transform="matrix(0.726084 -0.687606 0.687301 0.726373 -2804.95 1859.48)" fill="#E0E0E0"/>
<mask id="mask19_outline_ins">
<use xlink:href="#path22_fill" fill="white" transform="matrix(0.726084 -0.687606 0.687301 0.726373 -2804.95 1859.48)"/>
</mask>
<g mask="url(#mask19_outline_ins)">
<use xlink:href="#path23_stroke_2x" transform="matrix(0.726084 -0.687606 0.687301 0.726373 -2804.95 1859.48)"/>
</g>
</g>
<g id="Vector">
<use xlink:href="#path34_fill" transform="translate(-2807.99 1439.87)" fill="#EB5757"/>
<use xlink:href="#path35_stroke" transform="translate(-2807.99 1439.87)"/>
</g>
<g id="Union">
<use xlink:href="#path36_fill" transform="matrix(0.770401 0.63756 -0.63756 0.770401 -2801.14 1797.3)" fill="#EB5757"/>
<mask id="mask20_outline_ins">
<use xlink:href="#path36_fill" fill="white" transform="matrix(0.770401 0.63756 -0.63756 0.770401 -2801.14 1797.3)"/>
</mask>
<g mask="url(#mask20_outline_ins)">
<use xlink:href="#path37_stroke_2x" transform="matrix(0.770401 0.63756 -0.63756 0.770401 -2801.14 1797.3)"/>
</g>
</g>
<g id="Union">
<use xlink:href="#path38_fill" transform="matrix(0.707107 -0.707107 0.707107 0.707107 -2708.38 1876.95)" fill="#EB5757"/>
<mask id="mask21_outline_ins">
<use xlink:href="#path38_fill" fill="white" transform="matrix(0.707107 -0.707107 0.707107 0.707107 -2708.38 1876.95)"/>
</mask>
<g mask="url(#mask21_outline_ins)">
<use xlink:href="#path39_stroke_2x" transform="matrix(0.707107 -0.707107 0.707107 0.707107 -2708.38 1876.95)"/>
</g>
</g>
</g>
</g>
<defs>
<linearGradient id="paint2_linear" x1="0" y1="0" x2="1" y2="0" gradientUnits="userSpaceOnUse" gradientTransform="matrix(-128.829 -4.36723e-14 9.27085e-09 -182.029 182.485 137.84)">
<stop offset="0.309392" stop-color="#AEAEAE"/>
<stop offset="0.535912" stop-color="#E0E0E0"/>
<stop offset="1" stop-color="#737373"/>
</linearGradient>
<radialGradient id="paint6_radial" cx="0.5" cy="0.5" r="0.5" gradientUnits="userSpaceOnUse" gradientTransform="matrix(1.21579 480.476 -376.513 3.24933 251.78 -153.738)">
<stop offset="0.298343" stop-color="#E4B5A4"/>
<stop offset="0.961326"/>
</radialGradient>
<radialGradient id="paint18_radial" cx="0.5" cy="0.5" r="0.5" gradientUnits="userSpaceOnUse" gradientTransform="matrix(1.33486e-14 221 -218 1.35323e-14 218.93 -2.15133e-12)">
<stop offset="0" stop-color="#333333"/>
<stop offset="0.922652" stop-color="#00D8C4"/>
</radialGradient>
<path id="path0_fill" d="M 146.579 30.5632C 146.579 47.4428 113.766 61.1264 73.2896 61.1264C 32.8128 61.1264 0 47.4428 0 30.5632C 0 13.6836 32.8128 0 73.2896 0C 113.766 0 146.579 13.6836 146.579 30.5632Z"/>
<path id="path1_stroke_2x" d="M 141.579 30.5632C 141.579 33.0429 140.395 35.8567 137.309 38.8993C 134.028 42.1797 129.468 44.9576 123.189 47.5599C 110.421 52.9141 93.0671 56.1477 73.2896 56.1264L 73.2896 66.1264C 93.9887 66.1052 113.279 62.497 127.038 56.7895C 134.021 53.8609 140.194 50.053 144.33 46.0203C 148.661 41.7498 151.579 36.5233 151.579 30.5632L 141.579 30.5632ZM 73.2896 56.1264C 53.512 56.1477 36.1578 52.9141 23.3905 47.5599C 17.1112 44.9576 12.5508 42.1797 9.26988 38.8993C 6.18391 35.8567 5 33.0429 5 30.5632L -5 30.5632C -5 36.5233 -2.0823 41.7498 2.24903 46.0203C 6.3854 50.053 12.558 53.8609 19.5415 56.7895C 33.2998 62.497 52.5904 66.1052 73.2896 66.1264L 73.2896 56.1264ZM 5 30.5632C 5 28.0835 6.18391 25.2697 9.26988 22.2271C 12.5508 18.9467 17.1112 16.1688 23.3905 13.5666C 36.1578 8.21236 53.512 4.97872 73.2896 5L 73.2896 -5C 52.5904 -4.97872 33.2998 -1.37055 19.5415 4.33695C 12.558 7.26554 6.3854 11.0735 2.24903 15.1062C -2.0823 19.3766 -5 24.6031 -5 30.5632L 5 30.5632ZM 73.2896 5C 93.0671 4.97872 110.421 8.21236 123.189 13.5666C 129.468 16.1688 134.028 18.9467 137.309 22.2271C 140.395 25.2697 141.579 28.0835 141.579 30.5632L 151.579 30.5632C 151.579 24.6031 148.661 19.3766 144.33 15.1062C 140.194 11.0735 134.021 7.26554 127.038 4.33695C 113.279 -1.37055 93.9887 -4.97872 73.2896 -5L 73.2896 5Z"/>
<path id="path2_fill" d="M 232.64 46.6758C 232.64 92.1422 180.562 117 116.32 117C 52.0783 117 0 92.1422 0 46.6758C 0 1.20938 52.0783 0 116.32 0C 180.562 0 232.64 1.20938 232.64 46.6758Z"/>
<path id="path3_stroke_2x" d="M 227.64 46.6758C 227.64 67.1304 216.055 83.2623 196.111 94.535C 176.044 105.877 147.892 112 116.32 112L 116.32 122C 148.99 122 178.998 115.694 201.031 103.241C 223.187 90.7178 237.64 71.6876 237.64 46.6758L 227.64 46.6758ZM 116.32 112C 84.748 112 56.5965 105.877 36.5297 94.535C 16.5857 83.2623 5 67.1304 5 46.6758L -5 46.6758C -5 71.6876 9.45345 90.7178 31.6091 103.241C 53.6418 115.694 83.6504 122 116.32 122L 116.32 112ZM 5 46.6758C 5 36.3418 7.92355 29.0009 12.849 23.5557C 17.8756 17.9989 25.4115 13.9481 35.4369 11.0973C 55.6747 5.3426 83.9757 5 116.32 5L 116.32 -5C 84.4227 -5 54.5637 -4.73791 32.7018 1.47865C 21.6775 4.61349 12.1786 9.39008 5.43298 16.8474C -1.41377 24.4165 -5 34.2766 -5 46.6758L 5 46.6758ZM 116.32 5C 148.664 5 176.966 5.3426 197.203 11.0973C 207.229 13.9481 214.765 17.9989 219.791 23.5557C 224.717 29.0009 227.64 36.3418 227.64 46.6758L 237.64 46.6758C 237.64 34.2766 234.054 24.4165 227.207 16.8474C 220.462 9.39008 210.963 4.61349 199.938 1.47865C 178.077 -4.73791 148.218 -5 116.32 -5L 116.32 5Z"/>
<path id="path4_fill" d="M 123.583 148.607C 98.6653 156.241 89.5376 148.607 59.6685 148.607C 29.7994 148.607 30.9926 156.241 6.07452 148.607C 4.49508 140.208 0 119.497 0 110.469C 0 49.4587 12.5008 0 59.6685 0C 106.836 0 126 61.3954 126 122.406C 126 131.434 125.163 140.208 123.583 148.607Z"/>
<path id="path5_stroke_2x" d="M 123.583 148.607L 125.048 153.388L 127.938 152.502L 128.497 149.531L 123.583 148.607ZM 6.07452 148.607L 1.16065 149.531L 1.71937 152.502L 4.60997 153.388L 6.07452 148.607ZM 122.119 143.827C 110.384 147.479 102.873 147.431 94.0023 146.497C 85.0931 145.571 75.0856 143.631 59.6685 143.607L 59.6685 153.607C 74.1206 153.584 83.6114 155.461 92.9629 156.443C 102.353 157.417 111.865 157.369 125.048 153.388L 122.119 143.827ZM 59.6685 143.607C 44.0854 143.65 36.5598 145.618 30.2941 146.522C 24.5811 147.354 19.4003 147.46 7.53907 143.827L 4.60997 153.388C 17.6668 157.388 24.3484 157.494 31.7357 156.418C 38.5702 155.414 45.3826 153.565 59.6685 153.607L 59.6685 143.607ZM 10.9884 147.683C 10.1893 143.435 8.67457 136.177 7.36623 128.89C 6.05679 121.602 4.98594 114.608 5 110.469L -5 110.469C -4.98594 115.358 -3.80925 123.233 -2.47629 130.658C -1.14223 138.083 0.380338 145.381 1.16065 149.531L 10.9884 147.683ZM 5 110.469C 5 80.1319 8.13577 53.3991 16.7038 34.4123C 20.9699 24.8897 26.1496 17.834 33.3578 12.7462C 40.4985 7.55772 48.6503 4.93977 59.6685 5L 59.6685 -5C 47.1029 -4.93977 36.0041 -1.37539 27.535 4.61626C 19.1334 10.7085 12.344 19.8306 7.58891 30.299C -1.88538 51.2941 -5 79.7959 -5 110.469L 5 110.469ZM 59.6685 5C 80.5502 5 95.7455 18.4117 105.989 40.4328C 116.257 62.5084 121 92.3091 121 122.406L 131 122.406C 131 91.4922 126.161 60.09 115.056 36.2152C 103.925 12.2861 85.9546 -5 59.6685 -5L 59.6685 5ZM 121 122.406C 121.006 131.196 120.212 139.508 118.669 147.683L 128.497 149.531C 130.114 140.909 130.994 131.671 131 122.406L 121 122.406Z"/>
<path id="path6_fill" d="M 134 85.5C 134 132.72 104.064 171 67.136 171C 30.2081 171 2.28019 132.574 0.272096 85.5C -3.37514 0 30.2081 0 67.136 0C 104.064 0 134 0 134 85.5Z"/>
<path id="path7_stroke_2x" d="M 0.272096 85.5L 5.26755 85.2869L 0.272096 85.5ZM 129 85.5C 129 131.173 100.228 166 67.136 166L 67.136 176C 107.9 176 139 134.267 139 85.5L 129 85.5ZM 67.136 166C 50.5574 166 35.7025 157.405 24.5805 142.865C 13.4362 128.296 6.23402 107.943 5.26755 85.2869L -4.72336 85.7131C -3.68173 110.131 4.08411 132.529 16.6377 148.941C 29.2137 165.382 46.7867 176 67.136 176L 67.136 166ZM 5.26755 85.2869C 3.45489 42.7939 11.0621 23.5748 21.7293 14.495C 32.6169 5.22746 48.1419 5 67.136 5L 67.136 -5C 49.2023 -5 29.4717 -5.22746 15.2475 6.88005C 0.802888 19.1752 -6.55794 42.7061 -4.72336 85.7131L 5.26755 85.2869ZM 67.136 5C 86.1326 5 100.69 5.23537 111.106 14.435C 121.451 23.5726 129 42.9151 129 85.5L 139 85.5C 139 42.5849 131.581 19.1774 117.726 6.94001C 103.942 -5.23537 85.0675 -5 67.136 -5L 67.136 5Z"/>
<path id="path8_fill" d="M 70.7215 31.1572C 70.7215 48.3648 54.8899 62.3143 35.3607 62.3143C 15.8315 62.3143 0 48.3648 0 31.1572C 0 13.9495 15.8315 0 35.3607 0C 54.8899 0 70.7215 13.9495 70.7215 31.1572Z"/>
<path id="path9_stroke_2x" d="M 65.7215 31.1572C 65.7215 45.0275 52.7419 57.3143 35.3607 57.3143L 35.3607 67.3143C 57.038 67.3143 75.7215 51.7021 75.7215 31.1572L 65.7215 31.1572ZM 35.3607 57.3143C 17.9796 57.3143 5 45.0275 5 31.1572L -5 31.1572C -5 51.7021 13.6835 67.3143 35.3607 67.3143L 35.3607 57.3143ZM 5 31.1572C 5 17.2868 17.9796 5 35.3607 5L 35.3607 -5C 13.6835 -5 -5 10.6123 -5 31.1572L 5 31.1572ZM 35.3607 5C 52.7419 5 65.7215 17.2868 65.7215 31.1572L 75.7215 31.1572C 75.7215 10.6123 57.038 -5 35.3607 -5L 35.3607 5Z"/>
<path id="path10_fill" d="M 33 38.5C 33 59.763 25.6127 77 16.5 77C 7.3873 77 0 59.763 0 38.5C 0 17.237 7.3873 0 16.5 0C 25.6127 0 33 17.237 33 38.5Z"/>
<path id="path11_stroke_2x" d="M 28 38.5C 28.0224 48.6583 26.3724 57.2921 23.5715 63.754C 22.248 66.8816 21.0002 68.8928 19.4104 70.4157C 18.0651 71.7434 17.0874 72 16.5 72L 16.5 82C 20.469 82 23.832 80.1019 26.4347 77.5332C 28.7929 75.1597 31.1006 71.5327 32.763 67.6932C 35.9339 60.2209 37.9776 49.6047 38 38.5L 28 38.5ZM 16.5 72C 15.9126 72 14.9349 71.7434 13.5896 70.4157C 11.9998 68.8928 10.752 66.8816 9.42846 63.754C 6.62758 57.2921 4.97756 48.6583 5 38.5L -5 38.5C -4.97756 49.6047 -2.93393 60.2209 0.237013 67.6932C 1.89942 71.5327 4.20708 75.1597 6.56528 77.5332C 9.16805 80.1019 12.531 82 16.5 82L 16.5 72ZM 5 38.5C 4.97756 28.3417 6.62758 19.7079 9.42846 13.246C 10.752 10.1184 11.9998 8.10718 13.5896 6.58426C 14.9349 5.25656 15.9126 5 16.5 5L 16.5 -5C 12.531 -5 9.16805 -3.10193 6.56528 -0.533216C 4.20708 1.84027 1.89942 5.46729 0.237013 9.30679C -2.93393 16.7791 -4.97756 27.3953 -5 38.5L 5 38.5ZM 16.5 5C 17.0874 5 18.0651 5.25656 19.4104 6.58426C 21.0002 8.10718 22.248 10.1184 23.5715 13.246C 26.3724 19.7079 28.0224 28.3417 28 38.5L 38 38.5C 37.9776 27.3953 35.9339 16.7791 32.763 9.30679C 31.1006 5.46729 28.7929 1.84027 26.4347 -0.533216C 23.832 -3.10193 20.469 -5 16.5 -5L 16.5 5Z"/>
<path id="path12_fill" d="M 16.026 19C 16.026 29.4934 12.4385 38 8.01301 38C 3.58755 38 0 29.4934 0 19C 0 8.50659 3.58755 0 8.01301 0C 12.4385 0 16.026 8.50659 16.026 19Z"/>
<path id="path13_stroke_2x" d="M 11.026 19C 11.0478 23.7808 10.342 27.5532 9.07201 30.4921C 8.51271 31.8575 8.17056 32.4418 7.59137 32.9765C 7.25288 33.316 7.39963 33 8.01301 33L 8.01301 43C 10.8391 43 13.0939 41.6207 14.6727 40.0373C 16.0108 38.6491 17.3953 36.4509 18.2861 34.378C 19.9162 30.4402 21.0043 24.7126 21.026 19L 11.026 19ZM 8.01301 33C 8.62638 33 8.77314 33.316 8.43465 32.9765C 7.85546 32.4418 7.5133 31.8575 6.954 30.4921C 5.68399 27.5532 4.97825 23.7808 5 19L -5 19C -4.97825 24.7126 -3.89022 30.4402 -2.26009 34.378C -1.36932 36.4509 0.0151818 38.6491 1.35332 40.0373C 2.93215 41.6207 5.1869 43 8.01301 43L 8.01301 33ZM 5 19C 4.97825 14.2192 5.68399 10.4468 6.954 7.50794C 7.5133 6.14249 7.85546 5.55819 8.43465 5.02351C 8.77314 4.68403 8.62638 5 8.01301 5L 8.01301 -5C 5.1869 -5 2.93215 -3.62071 1.35332 -2.03728C 0.0151818 -0.649062 -1.36932 1.54913 -2.26009 3.62201C -3.89022 7.55982 -4.97825 13.2874 -5 19L 5 19ZM 8.01301 5C 7.39963 5 7.25288 4.68403 7.59137 5.02351C 8.17056 5.55819 8.51271 6.14249 9.07201 7.50794C 10.342 10.4468 11.0478 14.2192 11.026 19L 21.026 19C 21.0043 13.2874 19.9162 7.55982 18.2861 3.62201C 17.3953 1.54913 16.0108 -0.649062 14.6727 -2.03728C 13.0939 -3.62071 10.8391 -5 8.01301 -5L 8.01301 5Z"/>
<path id="path14_fill" d="M 13 10.9302C 13 16.9668 9.65262 17 6.06277 17C 2.47292 17 0 16.9668 0 10.9302C 0 4.89363 2.91015 0 6.5 0C 10.0899 0 13 4.89363 13 10.9302Z"/>
<path id="path15_stroke_2x" d="M 8 10.9302C 8 11.4593 7.96291 11.8335 7.92012 12.0848C 7.87761 12.3344 7.83425 12.4346 7.83449 12.4341C 7.87117 12.3496 8.03888 12.0993 8.32598 11.9289C 8.51369 11.8175 8.52384 11.8816 8.07027 11.9355C 7.59651 11.9919 7.01429 12 6.06277 12L 6.06277 22C 7.44688 22 10.7281 22.1316 13.4292 20.5288C 16.8763 18.4832 18 14.8079 18 10.9302L 8 10.9302ZM 6.06277 12C 5.61704 12 5.26293 12.0001 4.92591 11.9892C 4.60809 11.9794 4.39838 11.9624 4.25659 11.9437C 3.95261 11.9035 4.20599 11.8846 4.59328 12.1615C 4.79292 12.3043 4.95349 12.473 5.0659 12.6334C 5.17164 12.7842 5.19476 12.8703 5.17931 12.8246C 5.13274 12.6867 5 12.154 5 10.9302L -5 10.9302C -5 14.2866 -4.37728 18.0408 -1.2229 20.2961C 1.42236 22.1875 4.81873 22 6.06277 22L 6.06277 12ZM 5 10.9302C 5 8.65456 5.55893 6.83727 6.20132 5.75704C 6.90709 4.57024 7.17351 5 6.5 5L 6.5 -5C 2.23664 -5 -0.746943 -2.12342 -2.39371 0.645738C -4.10386 3.52148 -5 7.16929 -5 10.9302L 5 10.9302ZM 6.5 5C 5.82649 5 6.09291 4.57024 6.79868 5.75704C 7.44107 6.83727 8 8.65456 8 10.9302L 18 10.9302C 18 7.16929 17.1039 3.52148 15.3937 0.645738C 13.7469 -2.12342 10.7634 -5 6.5 -5L 6.5 5Z"/>
<path id="path16_fill" d="M 3.06311 17.5C 6 18.3633 6.56311 18.3633 10.6871 19.9066C 16.0204 19.8983 20.4984 24.5714 24.1062 28.3363C 29.7098 34.184 33.2141 37.8409 34.5631 18.3633C 34.5566 8.35719 23.5125 0.262735 9.89532 0.283856C 6.39898 0.289256 3.07375 -1.22905 1.48142 2.70316C -1.38479 5.65232 0.327649 12.0845 3.06311 17.5Z"/>
<path id="path17_stroke_2x" d="M 3.06311 17.5L -1.39986 19.7543L -0.423846 21.6866L 1.65307 22.2971L 3.06311 17.5ZM 10.6871 19.9066L 8.93458 24.5894L 9.78588 24.908L 10.6948 24.9066L 10.6871 19.9066ZM 24.1062 28.3363L 27.7163 24.877L 27.7163 24.8769L 24.1062 28.3363ZM 34.5631 18.3633L 39.5511 18.7087L 39.5632 18.5346L 39.5631 18.36L 34.5631 18.3633ZM 9.89532 0.283856L 9.90305 5.28385L 9.90308 5.28385L 9.89532 0.283856ZM 1.48142 2.70316L 5.06702 6.18791L 5.74873 5.48648L 6.11586 4.57986L 1.48142 2.70316ZM 1.65307 22.2971C 4.82085 23.2282 5.03617 23.1305 8.93458 24.5894L 12.4396 15.2238C 8.09005 13.596 7.17915 13.4983 4.47315 12.7029L 1.65307 22.2971ZM 10.6948 24.9066C 11.8638 24.9048 13.2806 25.4161 15.0901 26.7409C 16.9864 28.1056 18.6923 29.9133 20.4962 31.7958L 27.7163 24.8769C 25.9124 22.9945 23.5753 20.5831 20.9973 18.6722C 18.3326 16.7212 14.8436 14.9001 10.6793 14.9066L 10.6948 24.9066ZM 20.4962 31.7957C 21.8971 33.2576 23.4528 34.8583 24.8974 35.9712C 26.124 36.8994 29.3194 39.0634 32.9911 37.4023C 36.1857 35.957 37.3785 32.5352 37.9838 30.232C 38.6572 27.6349 39.1993 23.7471 39.5511 18.7087L 29.575 18.0178C 29.2438 22.8008 28.7963 25.8485 28.3123 27.69C 28.0705 28.6103 27.8752 29.0066 27.8199 29.1015C 27.7646 29.1964 28.0415 28.6658 28.8692 28.2913C 29.797 27.8715 30.6331 27.9949 31.016 28.1148C 31.2942 28.2019 31.2868 28.2658 30.9315 27.9969C 30.1009 27.3882 29.1172 26.3389 27.7163 24.877L 20.4962 31.7957ZM 39.5631 18.36C 39.5586 11.3852 35.6965 5.49382 30.2889 1.53054C 24.8792 -2.43431 17.6497 -4.72818 9.88757 -4.71614L 9.90308 5.28385C 15.758 5.27477 20.8592 7.01757 24.3775 9.59619C 27.8979 12.1764 29.5611 15.3352 29.5631 18.3665L 39.5631 18.36ZM 9.8876 -4.71614C 9.28803 -4.70767 8.66887 -4.78249 7.81108 -4.86558C 6.95058 -4.94873 5.72536 -5.03533 4.59174 -4.96438C 3.40425 -4.85228 1.46524 -4.28076 0.120523 -3.43729C -1.44011 -2.35144 -2.4793 -0.837253 -3.15302 0.826466L 6.11586 4.57986C 6.23831 4.27747 6.21189 4.50686 5.83185 4.77129C 5.46748 5.0248 5.19358 5.01883 5.357 5.00629C 5.59843 4.98776 5.98135 5.00409 6.84803 5.08794C 7.64683 5.16514 8.75445 5.27808 9.90305 5.28385L 9.8876 -4.71614ZM 7.52608 15.2457C 6.27411 12.7834 5.41977 10.5616 5.11251 8.41C 4.77504 6.23516 5.31062 5.93726 5.06702 6.18791L -2.10418 -0.781588C -5.21399 2.41822 -5.25529 6.81096 -4.76923 9.94337C -4.25296 13.099 -2.88335 16.801 -1.39986 19.7543L 7.52608 15.2457Z"/>
<path id="path18_fill" d="M 218.93 110.5C 218.93 171.527 148.664 212.033 88.9301 219.5C 48.9301 224.5 11.3952 203.5 0.930128 128.5C -8.06985 64 49.7311 0 109.93 0C 170.129 0 218.93 49.4725 218.93 110.5Z"/>
<path id="path19_stroke_2x" d="M 0.930128 128.5L -4.0219 129.191L 0.930128 128.5ZM 213.93 110.5C 213.93 138.906 197.603 162.965 173.339 181.079C 148.911 199.379 117.614 210.909 88.3099 214.539L 89.5503 224.461C 119.981 220.625 153.683 208.168 179.322 189.092C 205.124 169.83 223.93 143.121 223.93 110.5L 213.93 110.5ZM 88.3099 214.539C 69.3916 216.903 51.5599 213.096 37.1832 200.269C 22.6953 187.343 11.0219 164.644 5.88215 127.809L -4.0219 129.191C 1.30343 167.356 13.63 192.657 30.5258 207.731C 47.5328 222.904 68.4685 227.097 89.5503 224.461L 88.3099 214.539ZM 5.88215 127.809C 1.61866 97.2539 13.1629 66.5294 33.2592 43.3368C 53.3763 20.1202 81.5819 5 109.93 5L 109.93 -5C 78.0792 -5 47.2848 11.8798 25.7017 36.7882C 4.09785 61.7206 -8.75838 95.2461 -4.0219 129.191L 5.88215 127.809ZM 109.93 5C 167.304 5 213.93 52.1693 213.93 110.5L 223.93 110.5C 223.93 46.7758 172.955 -5 109.93 -5L 109.93 5Z"/>
<path id="path20_fill" fill-rule="evenodd" d="M 102.16 221C 203.16 221 213.16 181.5 213.16 111C 213.16 49.6964 163.464 0 102.16 0C 56.2885 0 16.9158 27.8254 0 67.5184C 43.8597 72.9996 78.1602 121.267 78.1602 180C 78.1602 193.543 76.3364 206.529 72.9923 218.563C 81.8823 220.16 91.5902 221 102.16 221Z"/>
<path id="path21_stroke_2x" d="M 0 67.5184L -4.59972 65.5582L -7.1991 71.6576L -0.620033 72.4798L 0 67.5184ZM 72.9923 218.563L 68.1749 217.224L 66.705 222.513L 72.108 223.484L 72.9923 218.563ZM 208.16 111C 208.16 146.462 205.511 172.165 191.649 189.292C 178.019 206.131 152.314 216 102.16 216L 102.16 226C 153.007 226 182.801 216.119 199.422 195.583C 215.809 175.335 218.16 146.038 218.16 111L 208.16 111ZM 102.16 5C 160.702 5 208.16 52.4578 208.16 111L 218.16 111C 218.16 46.935 166.225 -5 102.16 -5L 102.16 5ZM 4.59972 69.4787C 20.7578 31.5636 58.3626 5 102.16 5L 102.16 -5C 54.2143 -5 13.0737 24.0873 -4.59972 65.5582L 4.59972 69.4787ZM -0.620033 72.4798C 39.808 77.5322 73.1602 122.724 73.1602 180L 83.1602 180C 83.1602 119.81 47.9115 68.4671 0.620033 62.557L -0.620033 72.4798ZM 73.1602 180C 73.1723 193.194 71.4414 205.51 68.1749 217.224L 77.8098 219.902C 81.2314 207.549 83.148 193.891 83.1602 180L 73.1602 180ZM 102.16 216C 91.8058 216.005 82.5406 215.204 73.8766 213.642L 72.108 223.484C 81.2241 225.117 91.3746 225.995 102.16 226L 102.16 216Z"/>
<path id="path22_fill" d="M 117.037 29.7673C 117.037 45.5375 85.1581 57.1093 85.1581 57.1093C 38.1266 57.1093 0 44.325 0 28.5547C 0 12.7844 38.1266 3.69321e-23 85.1581 3.69321e-23C 114.489 -2.62536e-11 117.037 13.997 117.037 29.7673Z"/>
<path id="path23_stroke_2x" d="M 85.1581 57.1093L 85.1581 62.1093L 86.0376 62.1093L 86.8642 61.8092L 85.1581 57.1093ZM 85.1581 3.69321e-23L 85.1581 5L 85.1581 3.69321e-23ZM 112.037 29.7673C 112.037 31.9714 110.915 34.5018 108.349 37.3376C 105.717 40.2833 102.298 42.767 98.4928 45.0843C 94.7137 47.3974 91.0164 49.1913 88.1048 50.4874C 86.6742 51.1252 85.5212 51.6003 84.6777 51.9362C 84.2678 52.0996 83.9635 52.2168 83.7422 52.3008C 83.6372 52.3406 83.5652 52.3675 83.5106 52.3878C 83.486 52.3969 83.4715 52.4022 83.459 52.4068C 83.454 52.4087 83.4523 52.4093 83.4498 52.4102C 83.4493 52.4104 83.4493 52.4104 83.4495 52.4103C 83.4497 52.4102 83.4504 52.41 83.4505 52.41C 83.4512 52.4097 83.4521 52.4094 85.1581 57.1093C 86.8642 61.8092 86.8653 61.8088 86.8666 61.8084C 86.8671 61.8082 86.8685 61.8077 86.8697 61.8072C 86.8713 61.8067 86.8748 61.8054 86.8781 61.8042C 86.8833 61.8023 86.8932 61.7987 86.9036 61.7949C 86.9216 61.7882 86.9529 61.7767 86.9886 61.7635C 87.0547 61.739 87.1616 61.699 87.2901 61.6502C 87.5358 61.557 87.9165 61.4102 88.3782 61.2263C 89.278 60.8678 90.6156 60.3157 92.1737 59.6222C 95.2394 58.2558 99.5119 56.1711 103.702 53.62C 107.867 51.0731 112.417 47.7069 115.763 44.0475C 119.174 40.2781 122.037 35.4483 122.037 29.7673L 112.037 29.7673ZM 85.1581 52.1093C 62.0146 52.1232 41.5232 49.0521 26.5318 44.0052C 19.1422 41.5394 13.6756 38.8609 9.79832 35.7513C 6.06223 32.7894 5 30.3214 5 28.5547L -5 28.5547C -5 34.6731 -1.29641 39.7169 3.58598 43.5875C 8.32715 47.3104 15.3317 50.7849 23.3527 53.4864C 39.1824 58.7743 61.2702 62.0954 85.1581 62.1093L 85.1581 52.1093ZM 5 28.5547C 5 26.7879 6.06223 24.3199 9.79832 21.358C 13.6756 18.2484 19.1422 15.5699 26.5318 13.1041C 41.5232 8.05718 62.0146 4.98613 85.1581 5L 85.1581 -5C 61.2702 -4.98613 39.1824 -1.665 23.3527 3.62287C 15.3317 6.32439 8.32715 9.79892 3.58598 13.5218C -1.29641 17.3924 -5 22.4362 -5 28.5547L 5 28.5547ZM 85.1581 5C 99.1876 5 105.254 8.35847 108.167 12.0611C 111.296 16.039 112.037 21.8365 112.037 29.7673L 122.037 29.7673C 122.037 21.9277 121.504 12.8416 116.027 5.87838C 110.332 -1.35999 100.46 -5 85.1581 -5L 85.1581 5Z"/>
<path id="path24_fill" d="M 104.5 78.0622C 89.0368 82.4223 71.536 78.0622 53 78.0622C 34.464 78.0622 16.9632 82.4223 1.49972 78.0622C 0.519556 73.2649 0 68.2531 0 63.0967C 0 28.2493 23.7289 0 53 0C 82.2711 0 106 28.2493 106 63.0967C 106 68.2531 105.48 73.2649 104.5 78.0622Z"/>
<path id="path25_stroke_2x" d="M 104.5 78.0622L 105.857 82.8746L 108.789 82.0478L 109.399 79.0631L 104.5 78.0622ZM 1.49972 78.0622L -3.39908 79.0631L -2.78925 82.0478L 0.14283 82.8746L 1.49972 78.0622ZM 103.143 73.2498C 96.0836 75.2894 88.6852 75.2447 80.2176 74.7072C 71.7353 74.1732 62.5688 73.0713 53 73.0622L 53 83.0622C 61.9672 83.0531 70.8191 84.1312 79.587 84.6873C 88.3697 85.2397 97.4534 85.1951 105.857 82.8746L 103.143 73.2498ZM 53 73.0622C 43.4312 73.0713 34.2647 74.1732 25.7824 74.7072C 17.3148 75.2447 9.91637 75.2894 2.8566 73.2498L 0.14283 82.8746C 8.54658 85.1951 17.6303 85.2397 26.413 84.6873C 35.1809 84.1312 44.0328 83.0531 53 83.0622L 53 73.0622ZM 6.39851 77.0613C 5.46159 72.5058 4.99333 67.9949 5 63.0967L -5 63.0967C -4.99333 68.5112 -4.42248 74.0241 -3.39908 79.0631L 6.39851 77.0613ZM 5 63.0967C 5 30.1585 27.2717 5 53 5L 53 -5C 20.1861 -5 -5 26.3402 -5 63.0967L 5 63.0967ZM 53 5C 78.7282 5 101 30.1585 101 63.0967L 111 63.0967C 111 26.3402 85.8139 -5 53 -5L 53 5ZM 101 63.0967C 101.007 67.9949 100.538 72.5058 99.6015 77.0613L 109.399 79.0631C 110.422 74.0241 110.993 68.5112 111 63.0967L 101 63.0967Z"/>
<path id="path26_fill" d="M 109.845 30.5632C 109.845 47.4428 85.2555 61.1264 54.9226 61.1264C 24.5897 61.1264 0 47.4428 0 30.5632C 0 13.6836 24.5897 0 54.9226 0C 85.2555 0 109.845 13.6836 109.845 30.5632Z"/>
<path id="path27_stroke_2x" d="M 104.845 30.5632C 104.845 36.3669 100.56 42.668 91.3275 47.8056C 82.2628 52.8499 69.4016 56.1264 54.9226 56.1264L 54.9226 66.1264C 70.7765 66.1264 85.3767 62.5612 96.1901 56.5438C 106.836 50.6196 114.845 41.6391 114.845 30.5632L 104.845 30.5632ZM 54.9226 56.1264C 40.4436 56.1264 27.5824 52.8499 18.5178 47.8056C 9.28544 42.668 5 36.3669 5 30.5632L -5 30.5632C -5 41.6391 3.0094 50.6196 13.6552 56.5438C 24.4686 62.5612 39.0687 66.1264 54.9226 66.1264L 54.9226 56.1264ZM 5 30.5632C 5 24.7595 9.28544 18.4584 18.5178 13.3208C 27.5824 8.27656 40.4436 5 54.9226 5L 54.9226 -5C 39.0687 -5 24.4686 -1.43475 13.6552 4.58269C 3.0094 10.5068 -5 19.4873 -5 30.5632L 5 30.5632ZM 54.9226 5C 69.4016 5 82.2628 8.27656 91.3275 13.3208C 100.56 18.4584 104.845 24.7595 104.845 30.5632L 114.845 30.5632C 114.845 19.4873 106.836 10.5068 96.1901 4.58269C 85.3767 -1.43475 70.7765 -5 54.9226 -5L 54.9226 5Z"/>
<path id="path28_fill" d="M 78.5832 34.393C 78.5832 62.4219 60.9189 85.1438 39.129 85.1438C 17.3391 85.1438 -5.10806e-05 71.9142 -5.10806e-05 43.8853C -5.10804e-05 1.44334 24.929 0 46.7189 0C 68.5088 0 78.5832 6.36415 78.5832 34.393Z"/>
<path id="path29_stroke_2x" d="M -5.10806e-05 43.8853L -5.00005 43.8853L -5.10806e-05 43.8853ZM 73.5832 34.393C 73.5832 60.9051 57.059 80.1438 39.129 80.1438L 39.129 90.1438C 64.7788 90.1438 83.5832 63.9387 83.5832 34.393L 73.5832 34.393ZM 39.129 80.1438C 29.2265 80.1438 20.7944 77.1486 14.8651 71.4273C 8.97701 65.7457 4.99995 56.838 4.99995 43.8853L -5.00005 43.8853C -5.00005 58.9614 -0.307559 70.6831 7.92136 78.6234C 16.1091 86.5241 27.2416 90.1438 39.129 90.1438L 39.129 80.1438ZM 4.99995 43.8853C 4.99995 23.6389 10.8846 14.6662 17.8614 10.2523C 25.4115 5.4757 35.6154 5 46.7189 5L 46.7189 -5C 36.0324 -5 22.8769 -4.75403 12.515 1.80153C 1.57979 8.71976 -5.00005 21.6897 -5.00005 43.8853L 4.99995 43.8853ZM 46.7189 5C 57.423 5 63.6004 6.63944 67.3376 10.2714C 71.0638 13.8926 73.5832 20.7035 73.5832 34.393L 83.5832 34.393C 83.5832 20.0537 81.0654 9.66807 74.3069 3.10001C 67.5595 -3.45736 57.8047 -5 46.7189 -5L 46.7189 5Z"/>
<path id="path30_fill" d="M 25.8446 29.5593C 25.8446 45.8844 20.0591 59.1186 12.9223 59.1186C 5.78551 59.1186 0 45.8844 0 29.5593C 0 13.2341 5.78551 0 12.9223 0C 20.0591 0 25.8446 13.2341 25.8446 29.5593Z"/>
<path id="path31_stroke_2x" d="M 22.8446 29.5593C 22.8586 37.4324 21.5346 44.2174 19.3109 49.2592C 18.2461 51.7186 17.1783 53.3978 15.8662 54.6396C 14.7035 55.7646 13.7131 56.1186 12.9223 56.1186L 12.9223 62.1186C 15.6999 62.1186 18.109 60.8183 20.0382 58.9517C 21.8181 57.202 23.5348 54.5523 24.8085 51.6626C 27.2618 46.006 28.8306 38.0113 28.8446 29.5593L 22.8446 29.5593ZM 12.9223 56.1186C 12.1315 56.1186 11.1411 55.7646 9.97836 54.6396C 8.66626 53.3978 7.59844 51.7186 6.53366 49.2592C 4.30998 44.2174 2.986 37.4324 3 29.5593L -3 29.5593C -2.986 38.0113 -1.41722 46.006 1.03604 51.6626C 2.30974 54.5523 4.02644 57.202 5.80634 58.9517C 7.73558 60.8183 10.1447 62.1186 12.9223 62.1186L 12.9223 56.1186ZM 3 29.5593C 2.986 21.6862 4.30998 14.9012 6.53366 9.8594C 7.59844 7.39996 8.66626 5.7208 9.97836 4.47897C 11.1411 3.35398 12.1315 3 12.9223 3L 12.9223 -3C 10.1447 -3 7.73558 -1.69971 5.80634 0.166867C 4.02644 1.91659 2.30974 4.5663 1.03604 7.45603C -1.41722 13.1126 -2.986 21.1073 -3 29.5593L 3 29.5593ZM 12.9223 3C 13.7131 3 14.7035 3.35398 15.8662 4.47897C 17.1783 5.7208 18.2461 7.39996 19.3109 9.8594C 21.5346 14.9012 22.8586 21.6862 22.8446 29.5593L 28.8446 29.5593C 28.8306 21.1073 27.2618 13.1126 24.8085 7.45603C 23.5348 4.5663 21.8181 1.91659 20.0382 0.166867C 18.109 -1.69971 15.6999 -3 12.9223 -3L 12.9223 3Z"/>
<path id="path32_fill" d="M 4.87598 114.223C 4.89125 113.442 4.99789 112.666 5.19373 111.91L 23.6631 40.6281C 25.1479 34.8977 33.5996 36.0452 33.5026 41.964L 28.397 353.673C 28.3076 359.131 23.8573 363.509 18.3983 363.509L 10.1975 363.509C 4.59813 363.509 0.0899212 358.912 0.199423 353.313L 4.87598 114.223Z"/>
<path id="path33_stroke_2x" d="M 5.19373 111.91L 8.09783 112.663L 5.19373 111.91ZM 8.09783 112.663L 26.5672 41.3805L 20.759 39.8756L 2.28963 111.158L 8.09783 112.663ZM 30.503 41.9149L 25.3974 353.623L 31.3966 353.722L 36.5022 42.0132L 30.503 41.9149ZM 18.3983 360.509L 10.1975 360.509L 10.1975 366.509L 18.3983 366.509L 18.3983 360.509ZM 3.19885 353.372L 7.87541 114.281L 1.87655 114.164L -2.8 353.255L 3.19885 353.372ZM 2.28963 111.158C 2.05477 112.084 1.90038 113.208 1.87655 114.164L 7.87541 114.281C 7.88212 113.676 7.94101 113.247 8.09783 112.663L 2.28963 111.158ZM 26.5672 41.3805C 27.1611 39.0884 30.5418 39.5474 30.503 41.9149L 36.5022 42.0132C 36.6573 32.5431 23.1346 30.707 20.759 39.8756L 26.5672 41.3805ZM 25.3974 353.623C 25.3348 357.444 22.2196 360.509 18.3983 360.509L 18.3983 366.509C 25.495 366.509 31.2804 360.817 31.3966 353.722L 25.3974 353.623ZM 10.1975 360.509C 6.27795 360.509 3.1222 357.291 3.19885 353.372L -2.8 353.255C -2.94236 360.532 2.91832 366.509 10.1975 366.509L 10.1975 360.509Z"/>
<path id="path34_fill" d="M 194.489 106.627C 155.489 -2.37292 63.4884 9.12706 20.9887 28.6271C -13.5114 28.6271 -9.51135 7.45441 63.4886 0.627083C 158.679 -8.27562 210.989 80.1272 194.489 106.627Z"/>
<path id="path35_stroke" d="M 20.9887 28.6271L 20.9887 31.1271L 21.5349 31.1271L 22.0313 30.8993L 20.9887 28.6271ZM 194.489 106.627L 192.135 107.469L 193.877 112.339L 196.611 107.949L 194.489 106.627ZM 63.4886 0.627083L 63.2558 -1.86205L 63.4886 0.627083ZM 22.0313 30.8993C 43.0448 21.2435 75.8399 13.627 108.444 21.8647C 140.748 29.9561 172.89 53.682 192.135 107.469L 196.843 105.785C 177.088 50.5722 143.729 25.5481 109.658 17.0145C 75.8872 8.62718 41.4324 16.5106 19.9461 26.3549L 22.0313 30.8993ZM 196.611 107.949C 201.338 100.356 200.884 88.9341 196.732 76.8223C 192.562 64.7027 184.322 50.9912 172.691 38.636C 149.331 13.8619 111.729 -6.39548 63.2558 -1.86205L 63.7214 3.11622C 110.439 -1.25306 146.587 18.2397 169.054 42.0662C 180.337 54.0114 188.03 66.8129 192.002 78.4438C 195.992 90.0824 195.889 99.6485 192.366 105.306L 196.611 107.949ZM 63.2558 -1.86205C 44.8923 -0.141988 30.721 2.50556 20.4998 5.48228C 10.3215 8.4497 3.49955 11.8849 0.109692 15.4696C -1.61457 17.293 -2.74785 19.4836 -2.45465 21.8724C -2.16082 24.2664 -0.53242 26.0679 1.48094 27.3303C 5.43402 29.8088 12.2463 31.1271 20.9887 31.1271L 20.9887 26.1271C 12.481 26.1271 6.85581 24.7988 4.137 23.0941C 2.81442 22.2648 2.54828 21.5906 2.50811 21.2633C 2.46733 20.931 2.5606 20.155 3.74258 18.905C 6.16521 16.3432 11.8745 13.2051 21.8993 10.2824C 31.8812 7.3691 45.5849 4.80982 63.7214 3.11622L 63.2558 -1.86205Z"/>
<path id="path36_fill" fill-rule="evenodd" d="M 44.6383 18.6672C 35.8638 16.5701 28.0274 15.304 22.9325 15.304C 3.64061 15.3039 0.000117273 33.4582 0 46.1392C 4.45437e-05 58.8202 19.6091 60.9528 38.901 60.9528C 59.0809 60.9527 73.7653 60.5054 83.7551 58.8022C 95.4366 58.1446 104 55.0139 104 40.9175C 104 33.49 103.106 31.2447 101.932 28.2978C 100.42 24.5039 98.4455 19.5471 97.3201 0.871619C 96.3319 0.866019 94.8011 0.751116 92.8739 0.606459C 79.7458 -0.379028 48.2296 -2.74503 44.6383 18.6672Z"/>
<path id="path37_stroke_2x" d="M 44.6383 18.6672L 43.476 23.5303L 48.6838 24.7749L 49.5694 19.4943L 44.6383 18.6672ZM 22.9325 15.304L 22.9325 20.304L 22.9325 20.304L 22.9325 15.304ZM 0 46.1392L -5 46.1391L -5 46.1392L 0 46.1392ZM 38.901 60.9528L 38.901 65.9528L 38.901 65.9528L 38.901 60.9528ZM 83.7551 58.8022L 83.474 53.8101L 83.1926 53.826L 82.9147 53.8733L 83.7551 58.8022ZM 104 40.9175L 99.0001 40.9175L 99.0001 40.9175L 104 40.9175ZM 101.932 28.2978L 106.577 26.4474L 106.577 26.4473L 101.932 28.2978ZM 97.3201 0.871619L 102.311 0.570845L 102.029 -4.10177L 97.3484 -4.1283L 97.3201 0.871619ZM 92.8739 0.606459L 92.4996 5.59243L 92.4996 5.59243L 92.8739 0.606459ZM 45.8006 13.8042C 36.8444 11.6672 28.4274 10.32 22.9325 10.304L 22.9325 20.304C 27.6274 20.2879 34.8832 21.473 43.476 23.5303L 45.8006 13.8042ZM 22.9325 10.304C 11.3029 10.3039 3.95899 15.9825 -0.163228 23.5822C -4.07032 30.7852 -4.99994 39.4798 -5 46.1391L 5 46.1392C 5.00006 40.1175 5.89074 33.3945 8.62691 28.3501C 11.1479 23.7024 15.2703 20.3039 22.9325 20.304L 22.9325 10.304ZM -5 46.1392C -4.99998 50.7886 -3.12841 54.6023 -0.0334367 57.4708C 2.90648 60.1956 6.79092 61.9356 10.8251 63.104C 18.6921 65.349 29.1182 65.9509 38.901 65.9528L 38.901 55.9528C 29.3919 55.9547 20.3675 55.4903 13.607 53.4988C 10.3274 52.5489 8.10384 51.3781 6.76418 50.1365C 5.57957 49.0385 5.00001 47.8303 5 46.1391L -5 46.1392ZM 38.901 65.9528C 59.157 65.9521 74.2627 65.4806 84.5954 63.7311L 82.9147 53.8733C 73.2678 55.5302 59.0048 55.9533 38.901 55.9528L 38.901 65.9528ZM 84.0361 63.7943C 90.0261 63.4571 96.3591 62.4738 101.205 58.9388C 106.455 55.1092 109 49.0602 109 40.9175L 99.0001 40.9175C 99.0001 46.8713 97.2638 49.4358 95.3115 50.86C 92.9551 52.5789 89.1656 53.4897 83.474 53.8101L 84.0361 63.7943ZM 109 40.9175C 108.995 36.9733 108.724 34.0657 108.31 31.9501C 107.83 29.6495 107.164 27.9208 106.577 26.4474L 97.2868 30.1482C 97.8737 31.6217 98.2416 32.4891 98.5026 33.9048C 98.8286 35.5054 99.0055 37.4342 99.0001 40.9175L 109 40.9175ZM 106.577 26.4473C 105.307 23.2603 103.413 18.8502 102.311 0.570845L 92.3291 1.17239C 93.4785 20.244 95.5335 25.7474 97.2868 30.1483L 106.577 26.4473ZM 97.3484 -4.1283C 96.5333 -4.12992 95.1753 -4.23486 93.2481 -4.37952L 92.4996 5.59243C 94.4268 5.73709 96.1304 5.86196 97.2917 5.87154L 97.3484 -4.1283ZM 93.2482 -4.37951C 86.6842 -4.87226 74.8505 -5.71525 64.2143 -3.66821C 53.5361 -1.5668 42.0273 4.00707 39.7072 17.8402L 49.5694 19.4943C 50.8406 11.9151 56.8855 7.96587 66.1453 6.14359C 75.4471 4.26694 85.9356 5.09969 92.4996 5.59243L 93.2482 -4.37951Z"/>
<path id="path38_fill" fill-rule="evenodd" d="M 44.6383 18.6672C 35.8638 16.5701 28.0274 15.304 22.9325 15.304C 3.64061 15.3039 0.000117273 33.4582 0 46.1392C 4.45437e-05 58.8202 19.6091 60.9528 38.901 60.9528C 59.0809 60.9527 73.7653 60.5054 83.7551 58.8022C 95.4366 58.1446 104 55.0139 104 40.9175C 104 33.49 103.106 31.2447 101.932 28.2978C 100.42 24.5039 98.4455 19.5471 97.3201 0.871619C 96.3319 0.866019 94.8011 0.751116 92.8739 0.606459C 79.7458 -0.379028 48.2296 -2.74503 44.6383 18.6672Z"/>
<path id="path39_stroke_2x" d="M 44.6383 18.6672L 43.476 23.5303L 48.6838 24.7749L 49.5694 19.4943L 44.6383 18.6672ZM 22.9325 15.304L 22.9325 20.304L 22.9325 20.304L 22.9325 15.304ZM 0 46.1392L -5 46.1391L -5 46.1392L 0 46.1392ZM 38.901 60.9528L 38.901 65.9528L 38.901 65.9528L 38.901 60.9528ZM 83.7551 58.8022L 83.474 53.8101L 83.1926 53.826L 82.9147 53.8733L 83.7551 58.8022ZM 104 40.9175L 99.0001 40.9175L 99.0001 40.9175L 104 40.9175ZM 101.932 28.2978L 106.577 26.4474L 106.577 26.4473L 101.932 28.2978ZM 97.3201 0.871619L 102.311 0.570845L 102.029 -4.10177L 97.3484 -4.1283L 97.3201 0.871619ZM 92.8739 0.606459L 92.4996 5.59243L 92.4996 5.59243L 92.8739 0.606459ZM 45.8006 13.8042C 36.8444 11.6672 28.4274 10.32 22.9325 10.304L 22.9325 20.304C 27.6274 20.2879 34.8832 21.473 43.476 23.5303L 45.8006 13.8042ZM 22.9325 10.304C 11.3029 10.3039 3.95899 15.9825 -0.163228 23.5822C -4.07032 30.7852 -4.99994 39.4798 -5 46.1391L 5 46.1392C 5.00006 40.1175 5.89074 33.3945 8.62691 28.3501C 11.1479 23.7024 15.2703 20.3039 22.9325 20.304L 22.9325 10.304ZM -5 46.1392C -4.99998 50.7886 -3.12841 54.6023 -0.0334367 57.4708C 2.90648 60.1956 6.79092 61.9356 10.8251 63.104C 18.6921 65.349 29.1182 65.9509 38.901 65.9528L 38.901 55.9528C 29.3919 55.9547 20.3675 55.4903 13.607 53.4988C 10.3274 52.5489 8.10384 51.3781 6.76418 50.1365C 5.57957 49.0385 5.00001 47.8303 5 46.1391L -5 46.1392ZM 38.901 65.9528C 59.157 65.9521 74.2627 65.4806 84.5954 63.7311L 82.9147 53.8733C 73.2678 55.5302 59.0048 55.9533 38.901 55.9528L 38.901 65.9528ZM 84.0361 63.7943C 90.0261 63.4571 96.3591 62.4738 101.205 58.9388C 106.455 55.1092 109 49.0602 109 40.9175L 99.0001 40.9175C 99.0001 46.8713 97.2638 49.4358 95.3115 50.86C 92.9551 52.5789 89.1656 53.4897 83.474 53.8101L 84.0361 63.7943ZM 109 40.9175C 108.995 36.9733 108.724 34.0657 108.31 31.9501C 107.83 29.6495 107.164 27.9208 106.577 26.4474L 97.2868 30.1482C 97.8737 31.6217 98.2416 32.4891 98.5026 33.9048C 98.8286 35.5054 99.0055 37.4342 99.0001 40.9175L 109 40.9175ZM 106.577 26.4473C 105.307 23.2603 103.413 18.8502 102.311 0.570845L 92.3291 1.17239C 93.4785 20.244 95.5335 25.7474 97.2868 30.1483L 106.577 26.4473ZM 97.3484 -4.1283C 96.5333 -4.12992 95.1753 -4.23486 93.2481 -4.37952L 92.4996 5.59243C 94.4268 5.73709 96.1304 5.86196 97.2917 5.87154L 97.3484 -4.1283ZM 93.2482 -4.37951C 86.6842 -4.87226 74.8505 -5.71525 64.2143 -3.66821C 53.5361 -1.5668 42.0273 4.00707 39.7072 17.8402L 49.5694 19.4943C 50.8406 11.9151 56.8855 7.96587 66.1453 6.14359C 75.4471 4.26694 85.9356 5.09969 92.4996 5.59243L 93.2482 -4.37951Z"/>
</defs>
</svg>
